<?xml version="1.0" encoding="UTF-8" standalone="no"?>
<!-- Created with Inkscape (http://www.inkscape.org/) -->

<svg
   xmlns:dc="http://purl.org/dc/elements/1.1/"
   xmlns:cc="http://creativecommons.org/ns#"
   xmlns:rdf="http://www.w3.org/1999/02/22-rdf-syntax-ns#"
   xmlns:svg="http://www.w3.org/2000/svg"
   xmlns="http://www.w3.org/2000/svg"
   xmlns:xlink="http://www.w3.org/1999/xlink"
   xmlns:sodipodi="http://sodipodi.sourceforge.net/DTD/sodipodi-0.dtd"
   xmlns:inkscape="http://www.inkscape.org/namespaces/inkscape"
   width="3188.9763"
   height="4251.9683"
   id="svg3747"
   version="1.1"
   inkscape:version="0.47 r22583"
   sodipodi:docname="poster.svg"
   inkscape:export-filename="/home/juan/Escritorio/p.png"
   inkscape:export-xdpi="90"
   inkscape:export-ydpi="90">
  <defs
     id="defs3749">
    <inkscape:perspective
       sodipodi:type="inkscape:persp3d"
       inkscape:vp_x="0 : 526.18109 : 1"
       inkscape:vp_y="0 : 1000 : 0"
       inkscape:vp_z="744.09448 : 526.18109 : 1"
       inkscape:persp3d-origin="372.04724 : 350.78739 : 1"
       id="perspective3755" />
    <inkscape:perspective
       id="perspective5039"
       inkscape:persp3d-origin="438.69949 : 50.333333 : 1"
       inkscape:vp_z="877.39899 : 75.5 : 1"
       inkscape:vp_y="0 : 1000 : 0"
       inkscape:vp_x="0 : 75.5 : 1"
       sodipodi:type="inkscape:persp3d" />
    <inkscape:perspective
       id="perspective5703"
       inkscape:persp3d-origin="0.5 : 0.33333333 : 1"
       inkscape:vp_z="1 : 0.5 : 1"
       inkscape:vp_y="0 : 1000 : 0"
       inkscape:vp_x="0 : 0.5 : 1"
       sodipodi:type="inkscape:persp3d" />
    <inkscape:perspective
       id="perspective5735"
       inkscape:persp3d-origin="0.5 : 0.33333333 : 1"
       inkscape:vp_z="1 : 0.5 : 1"
       inkscape:vp_y="0 : 1000 : 0"
       inkscape:vp_x="0 : 0.5 : 1"
       sodipodi:type="inkscape:persp3d" />
    <inkscape:perspective
       id="perspective5765"
       inkscape:persp3d-origin="0.5 : 0.33333333 : 1"
       inkscape:vp_z="1 : 0.5 : 1"
       inkscape:vp_y="0 : 1000 : 0"
       inkscape:vp_x="0 : 0.5 : 1"
       sodipodi:type="inkscape:persp3d" />
    <inkscape:perspective
       id="perspective5791"
       inkscape:persp3d-origin="0.5 : 0.33333333 : 1"
       inkscape:vp_z="1 : 0.5 : 1"
       inkscape:vp_y="0 : 1000 : 0"
       inkscape:vp_x="0 : 0.5 : 1"
       sodipodi:type="inkscape:persp3d" />
    <inkscape:perspective
       id="perspective5816"
       inkscape:persp3d-origin="0.5 : 0.33333333 : 1"
       inkscape:vp_z="1 : 0.5 : 1"
       inkscape:vp_y="0 : 1000 : 0"
       inkscape:vp_x="0 : 0.5 : 1"
       sodipodi:type="inkscape:persp3d" />
    <inkscape:perspective
       id="perspective5838"
       inkscape:persp3d-origin="0.5 : 0.33333333 : 1"
       inkscape:vp_z="1 : 0.5 : 1"
       inkscape:vp_y="0 : 1000 : 0"
       inkscape:vp_x="0 : 0.5 : 1"
       sodipodi:type="inkscape:persp3d" />
    <inkscape:perspective
       id="perspective5863"
       inkscape:persp3d-origin="0.5 : 0.33333333 : 1"
       inkscape:vp_z="1 : 0.5 : 1"
       inkscape:vp_y="0 : 1000 : 0"
       inkscape:vp_x="0 : 0.5 : 1"
       sodipodi:type="inkscape:persp3d" />
    <inkscape:perspective
       id="perspective5889"
       inkscape:persp3d-origin="0.5 : 0.33333333 : 1"
       inkscape:vp_z="1 : 0.5 : 1"
       inkscape:vp_y="0 : 1000 : 0"
       inkscape:vp_x="0 : 0.5 : 1"
       sodipodi:type="inkscape:persp3d" />
    <inkscape:perspective
       id="perspective5934"
       inkscape:persp3d-origin="0.5 : 0.33333333 : 1"
       inkscape:vp_z="1 : 0.5 : 1"
       inkscape:vp_y="0 : 1000 : 0"
       inkscape:vp_x="0 : 0.5 : 1"
       sodipodi:type="inkscape:persp3d" />
    <inkscape:perspective
       id="perspective6054"
       inkscape:persp3d-origin="0.5 : 0.33333333 : 1"
       inkscape:vp_z="1 : 0.5 : 1"
       inkscape:vp_y="0 : 1000 : 0"
       inkscape:vp_x="0 : 0.5 : 1"
       sodipodi:type="inkscape:persp3d" />
    <inkscape:perspective
       id="perspective6092"
       inkscape:persp3d-origin="0.5 : 0.33333333 : 1"
       inkscape:vp_z="1 : 0.5 : 1"
       inkscape:vp_y="0 : 1000 : 0"
       inkscape:vp_x="0 : 0.5 : 1"
       sodipodi:type="inkscape:persp3d" />
    <inkscape:perspective
       id="perspective6555"
       inkscape:persp3d-origin="0.5 : 0.33333333 : 1"
       inkscape:vp_z="1 : 0.5 : 1"
       inkscape:vp_y="0 : 1000 : 0"
       inkscape:vp_x="0 : 0.5 : 1"
       sodipodi:type="inkscape:persp3d" />
    <inkscape:perspective
       id="perspective6571"
       inkscape:persp3d-origin="0.5 : 0.33333333 : 1"
       inkscape:vp_z="1 : 0.5 : 1"
       inkscape:vp_y="0 : 1000 : 0"
       inkscape:vp_x="0 : 0.5 : 1"
       sodipodi:type="inkscape:persp3d" />
    <inkscape:perspective
       id="perspective6691"
       inkscape:persp3d-origin="0.5 : 0.33333333 : 1"
       inkscape:vp_z="1 : 0.5 : 1"
       inkscape:vp_y="0 : 1000 : 0"
       inkscape:vp_x="0 : 0.5 : 1"
       sodipodi:type="inkscape:persp3d" />
    <inkscape:perspective
       id="perspective6705"
       inkscape:persp3d-origin="0.5 : 0.33333333 : 1"
       inkscape:vp_z="1 : 0.5 : 1"
       inkscape:vp_y="0 : 1000 : 0"
       inkscape:vp_x="0 : 0.5 : 1"
       sodipodi:type="inkscape:persp3d" />
    <inkscape:perspective
       id="perspective6781"
       inkscape:persp3d-origin="0.5 : 0.33333333 : 1"
       inkscape:vp_z="1 : 0.5 : 1"
       inkscape:vp_y="0 : 1000 : 0"
       inkscape:vp_x="0 : 0.5 : 1"
       sodipodi:type="inkscape:persp3d" />
    <inkscape:perspective
       id="perspective6869"
       inkscape:persp3d-origin="0.5 : 0.33333333 : 1"
       inkscape:vp_z="1 : 0.5 : 1"
       inkscape:vp_y="0 : 1000 : 0"
       inkscape:vp_x="0 : 0.5 : 1"
       sodipodi:type="inkscape:persp3d" />
    <inkscape:perspective
       id="perspective6883"
       inkscape:persp3d-origin="0.5 : 0.33333333 : 1"
       inkscape:vp_z="1 : 0.5 : 1"
       inkscape:vp_y="0 : 1000 : 0"
       inkscape:vp_x="0 : 0.5 : 1"
       sodipodi:type="inkscape:persp3d" />
  </defs>
  <sodipodi:namedview
     id="base"
     pagecolor="#ffffff"
     bordercolor="#666666"
     borderopacity="1.0"
     inkscape:pageopacity="0.0"
     inkscape:pageshadow="2"
     inkscape:zoom="0.24748737"
     inkscape:cx="1684.8046"
     inkscape:cy="1025.5628"
     inkscape:document-units="px"
     inkscape:current-layer="layer1"
     showgrid="false"
     units="cm"
     inkscape:window-width="1670"
     inkscape:window-height="970"
     inkscape:window-x="0"
     inkscape:window-y="28"
     inkscape:window-maximized="1"
     inkscape:object-paths="true"
     showguides="true"
     inkscape:guide-bbox="true">
    <sodipodi:guide
       orientation="1,0"
       position="101.96227,3777.0866"
       id="guide6133" />
    <sodipodi:guide
       orientation="1,0"
       position="3088.5714,3611.4286"
       id="guide6315" />
  </sodipodi:namedview>
  <metadata
     id="metadata3752">
    <rdf:RDF>
      <cc:Work
         rdf:about="">
        <dc:format>image/svg+xml</dc:format>
        <dc:type
           rdf:resource="http://purl.org/dc/dcmitype/StillImage" />
        <dc:title />
      </cc:Work>
    </rdf:RDF>
  </metadata>
  <g
     inkscape:label="Capa 1"
     inkscape:groupmode="layer"
     id="layer1"
     transform="translate(0,3199.6075)">
    <g
       id="g6326"
       transform="matrix(0.97734722,0.21164216,-0.21164216,0.97734722,-420.2672,-223.65714)">
      <rect
         ry="160"
         y="-2590.96"
         x="101.01525"
         height="589.92908"
         width="1507.1476"
         id="rect5173"
         style="fill:#006d9b;fill-opacity:1;fill-rule:nonzero;stroke:none" />
      <text
         sodipodi:linespacing="125%"
         transform="scale(1.0183186,0.98201093)"
         id="text5131"
         y="-2565.6953"
         x="155.08127"
         style="font-size:56px;font-style:normal;font-variant:normal;font-weight:bold;font-stretch:normal;text-align:start;line-height:125%;writing-mode:lr-tb;text-anchor:start;fill:#fffcfc;fill-opacity:1;stroke:none;font-family:FreeMono;-inkscape-font-specification:FreeMono Bold"
         xml:space="preserve"><tspan
           style="font-size:56px;font-style:normal;font-variant:normal;font-weight:bold;font-stretch:normal;text-align:start;line-height:125%;writing-mode:lr-tb;text-anchor:start;fill:#fffcfc;fill-opacity:1;font-family:FreeMono;-inkscape-font-specification:FreeMono Bold"
           y="-2565.6953"
           x="155.08127"
           id="tspan5133"
           sodipodi:role="line">* Steamend es un “engine” </tspan><tspan
           id="tspan5157"
           style="font-size:56px;font-style:normal;font-variant:normal;font-weight:bold;font-stretch:normal;text-align:start;line-height:125%;writing-mode:lr-tb;text-anchor:start;fill:#fffcfc;fill-opacity:1;font-family:FreeMono;-inkscape-font-specification:FreeMono Bold"
           y="-2495.6953"
           x="155.08127"
           sodipodi:role="line">  configurable para</tspan><tspan
           id="tspan5159"
           style="font-size:56px;font-style:normal;font-variant:normal;font-weight:bold;font-stretch:normal;text-align:start;line-height:125%;writing-mode:lr-tb;text-anchor:start;fill:#fffcfc;fill-opacity:1;font-family:FreeMono;-inkscape-font-specification:FreeMono Bold"
           y="-2425.6953"
           x="155.08127"
           sodipodi:role="line">  realizar browser games </tspan><tspan
           style="font-size:56px;font-style:normal;font-variant:normal;font-weight:bold;font-stretch:normal;text-align:start;line-height:125%;writing-mode:lr-tb;text-anchor:start;fill:#fffcfc;fill-opacity:1;font-family:FreeMono;-inkscape-font-specification:FreeMono Bold"
           y="-2355.6953"
           x="155.08127"
           sodipodi:role="line"
           id="tspan2943">  (como “Farmville”).</tspan><tspan
           style="font-size:56px;font-style:normal;font-variant:normal;font-weight:bold;font-stretch:normal;text-align:start;line-height:125%;writing-mode:lr-tb;text-anchor:start;fill:#fffcfc;fill-opacity:1;font-family:FreeMono;-inkscape-font-specification:FreeMono Bold"
           id="tspan5135"
           y="-2285.6953"
           x="155.08127"
           sodipodi:role="line">* Fue desarrollado como proyecto de</tspan><tspan
           id="tspan5161"
           style="font-size:56px;font-style:normal;font-variant:normal;font-weight:bold;font-stretch:normal;text-align:start;line-height:125%;writing-mode:lr-tb;text-anchor:start;fill:#fffcfc;fill-opacity:1;font-family:FreeMono;-inkscape-font-specification:FreeMono Bold"
           y="-2215.6953"
           x="155.08127"
           sodipodi:role="line">  grado en la carrera</tspan><tspan
           id="tspan5155"
           style="font-size:56px;font-style:normal;font-variant:normal;font-weight:bold;font-stretch:normal;text-align:start;line-height:125%;writing-mode:lr-tb;text-anchor:start;fill:#fffcfc;fill-opacity:1;font-family:FreeMono;-inkscape-font-specification:FreeMono Bold"
           y="-2145.6953"
           x="155.08127"
           sodipodi:role="line">  “Ingeniería en Sistemas de Información”</tspan><tspan
           id="tspan5163"
           style="font-size:56px;font-style:normal;font-variant:normal;font-weight:bold;font-stretch:normal;text-align:start;line-height:125%;writing-mode:lr-tb;text-anchor:start;fill:#fffcfc;fill-opacity:1;font-family:FreeMono;-inkscape-font-specification:FreeMono Bold"
           y="-2075.6953"
           x="155.08127"
           sodipodi:role="line">  en la UTN-FRC.</tspan></text>
    </g>
    <rect
       ry="126.1435"
       y="-3110.4211"
       x="330.94565"
       height="465.09821"
       width="1655.719"
       id="rect6206"
       style="fill:#647883;fill-opacity:1;fill-rule:nonzero;stroke:none"
       transform="matrix(0.89428025,0.44750736,-0.44750736,0.89428025,0,0)" />
    <text
       sodipodi:linespacing="125%"
       transform="matrix(0.91066221,0.45570507,-0.43945712,0.87819298,0,0)"
       id="text6208"
       y="-3088.5667"
       x="399.81766"
       style="font-size:56px;font-style:normal;font-variant:normal;font-weight:bold;font-stretch:normal;text-align:start;line-height:125%;writing-mode:lr-tb;text-anchor:start;fill:#ffffff;fill-opacity:1;stroke:none;font-family:FreeMono;-inkscape-font-specification:FreeMono Bold"
       xml:space="preserve"><tspan
         id="tspan6222"
         style="font-size:56px;font-style:normal;font-variant:normal;font-weight:bold;font-stretch:normal;text-align:start;line-height:125%;writing-mode:lr-tb;text-anchor:start;fill:#ffffff;fill-opacity:1;font-family:FreeMono;-inkscape-font-specification:FreeMono Bold"
         y="-3088.5667"
         x="399.81766"
         sodipodi:role="line">* Está construido sobre el framework web</tspan><tspan
         id="tspan6250"
         style="font-size:56px;font-style:normal;font-variant:normal;font-weight:bold;font-stretch:normal;text-align:start;line-height:125%;writing-mode:lr-tb;text-anchor:start;fill:#ffffff;fill-opacity:1;font-family:FreeMono;-inkscape-font-specification:FreeMono Bold"
         y="-3018.5667"
         x="399.81766"
         sodipodi:role="line">  Django.</tspan><tspan
         id="tspan6252"
         style="font-size:56px;font-style:normal;font-variant:normal;font-weight:bold;font-stretch:normal;text-align:start;line-height:125%;writing-mode:lr-tb;text-anchor:start;fill:#ffffff;fill-opacity:1;font-family:FreeMono;-inkscape-font-specification:FreeMono Bold"
         y="-2948.5667"
         x="399.81766"
         sodipodi:role="line">* Utiliza su arquitectura de aplicaciones</tspan><tspan
         id="tspan6254"
         style="font-size:56px;font-style:normal;font-variant:normal;font-weight:bold;font-stretch:normal;text-align:start;line-height:125%;writing-mode:lr-tb;text-anchor:start;fill:#ffffff;fill-opacity:1;font-family:FreeMono;-inkscape-font-specification:FreeMono Bold"
         y="-2878.5667"
         x="399.81766"
         sodipodi:role="line">  para definir módulos que se encargan de:</tspan><tspan
         id="tspan6256"
         style="font-size:56px;font-style:normal;font-variant:normal;font-weight:bold;font-stretch:normal;text-align:start;line-height:125%;writing-mode:lr-tb;text-anchor:start;fill:#ffffff;fill-opacity:1;font-family:FreeMono;-inkscape-font-specification:FreeMono Bold"
         y="-2808.5667"
         x="399.81766"
         sodipodi:role="line">  Multiproceso, Internacionalizacion, Chat y</tspan><tspan
         id="tspan6262"
         style="font-size:56px;font-style:normal;font-variant:normal;font-weight:bold;font-stretch:normal;text-align:start;line-height:125%;writing-mode:lr-tb;text-anchor:start;fill:#ffffff;fill-opacity:1;font-family:FreeMono;-inkscape-font-specification:FreeMono Bold"
         y="-2738.5667"
         x="399.81766"
         sodipodi:role="line">  Conexión con redes sociales.</tspan></text>
    <flowRoot
       style="font-size:40px;font-style:normal;font-weight:normal;fill:#000000;fill-opacity:1;stroke:none;font-family:Bitstream Vera Sans"
       id="flowRoot6224"
       xml:space="preserve"
       transform="matrix(0.89428025,0.44750736,-0.44750736,0.89428025,-509.609,-1443.8723)"><flowRegion
         id="flowRegion6226"><rect
           y="1400.5397"
           x="1320"
           height="371.42856"
           width="720"
           id="rect6228" /></flowRegion><flowPara
         id="flowPara6230" /></flowRoot>    <text
       xml:space="preserve"
       style="font-size:40px;font-style:normal;font-weight:normal;fill:#006d9b;fill-opacity:1;stroke:none;font-family:Bitstream Vera Sans"
       x="90.240112"
       y="-2796.2109"
       id="text3757"><tspan
         sodipodi:role="line"
         id="tspan3759"
         x="90.240112"
         y="-2796.2109"
         style="font-size:120px;font-style:normal;font-variant:normal;font-weight:bold;font-stretch:normal;fill:#006d9b;fill-opacity:1;font-family:Arial Black;-inkscape-font-specification:'Arial Black, Bold'">Implementando un Browser Game con Django</tspan></text>
    <g
       id="g5076"
       transform="translate(-27.136721,0)">
      <g
         transform="matrix(1.8531711,0,0,1.8531711,798.44336,-3171.9681)"
         id="g5003">
        <path
           id="path5005"
           d="m 662.889,96.211 c -0.018,0.008 -0.033,0.018 -0.051,0.027 -3.893,0.652 -7.885,1.012 -11.963,1.012 -1.178,0 -2.348,-0.033 -3.512,-0.088 -1.604,2.217 -3.447,4.248 -5.492,6.057 2.809,0.322 5.658,0.506 8.549,0.525 -7.984,9.328 -19.832,15.256 -33.045,15.256 -23.986,0 -43.5,-19.514 -43.5,-43.5 0,-23.984 19.514,-43.5 43.5,-43.5 13.209,0 25.043,5.934 33.025,15.258 -2.834,0.025 -5.631,0.207 -8.385,0.523 2.045,1.809 3.889,3.84 5.492,6.059 1.164,-0.057 2.334,-0.09 3.512,-0.09 4.035,0 7.984,0.35 11.836,0.99 -1.361,-3.08 -2.939,-5.533 -3.967,-7.096 C 649.913,34.291 634.674,25.5 617.375,25.5 c -27.613,0 -50,22.387 -50,50 0,27.615 22.387,50 50,50 17.305,0 32.545,-8.797 41.52,-22.156 0.004,-0.002 0.01,-0.002 0.014,-0.002 1.599,-2.274 3.435,-5.938 3.98,-7.131 z"
           style="fill:#647883" />
        <path
           id="path5007"
           d="m 630.445,72.25 h -43.459 c -0.113,1.068 -0.175,2.152 -0.175,3.25 0,1.098 0.062,2.182 0.175,3.25 h 43.459 c 0.113,-1.068 0.175,-2.152 0.175,-3.25 0,-1.098 -0.062,-2.182 -0.175,-3.25 z"
           style="fill:#647883" />
      </g>
      <path
         id="path5009"
         d="m 2188.5941,-3077.5009 v 73.3486 c -10.3852,-21.4616 -26.9062,-39.4244 -47.2707,-51.5942 -3.8546,2.3035 -7.572,4.8109 -11.1375,7.5128 34.7247,18.3204 58.4082,54.7593 58.4082,96.7485 v 0 0 h 12.0456 v -126.0157 h -12.0456 z"
         style="fill:#647883" />
      <path
         id="path5011"
         d="m 2098.7153,-3077.5009 h -12.0456 v 126.0157 h 12.0456 v -73.3819 c 10.3852,21.4746 26.8969,39.454 47.2707,51.6275 3.8546,-2.3035 7.572,-4.8108 11.1357,-7.5146 -34.7247,-18.3167 -58.4064,-54.7575 -58.4064,-96.7467 z"
         style="fill:#647883" />
      <path
         id="path5013"
         d="m 2326.1939,-3077.5009 h -63.0078 v 126.0157 h 12.0456 v -113.97 h 50.9455 v -0.011 l 0.017,0.011 c 28.0996,0 50.9641,22.8607 50.9641,50.9622 0,28.1015 -22.8645,50.9622 -50.9641,50.9622 h -38.9166 v 12.0456 h 38.9166 c 34.797,0 63.0078,-28.209 63.0078,-63.0078 0,-34.7989 -28.2108,-63.0079 -63.0078,-63.0079 z"
         style="fill:#647883" />
      <path
         id="path5015"
         d="m 1499.574,-2981.0229 c 6.0969,-9.6977 9.6365,-21.1688 9.6365,-33.472 0,-34.7988 -28.2109,-63.0078 -63.0079,-63.0078 -34.797,0 -63.0078,28.209 -63.0078,63.0078 0,34.7989 28.2108,63.0078 63.0078,63.0078 11.8066,0 22.8478,-3.2541 32.2934,-8.9045 -1.0192,-4.0621 -2.2961,-8.0223 -3.8083,-11.864 -8.1372,5.5058 -17.9424,8.7229 -28.4851,8.7229 -28.1014,0 -50.9622,-22.8607 -50.9622,-50.9622 0,-28.1015 22.8608,-50.9622 50.9622,-50.9622 28.1015,0 50.9622,22.8607 50.9622,50.9622 0,12.8054 -4.7533,24.5175 -12.5811,33.4776 0.015,0 0.022,0 0.037,0.01 -0.022,0.01 -0.037,0.02 -0.057,0.03 6.1822,9.8144 14.9995,17.8034 25.4551,22.9775 2.7279,-3.0781 5.2334,-6.3564 7.4998,-9.8089 -6.9271,-3.0354 -13.0296,-7.5924 -17.9442,-13.2112 z"
         style="fill:#006d9b" />
      <path
         id="path5017"
         d="m 1326.675,-3014.493 c 0,-34.7989 -28.2109,-63.0079 -63.0079,-63.0079 -34.797,0 -63.0078,28.209 -63.0078,63.0079 0,34.7988 28.2108,63.0078 63.0078,63.0078 23.4278,0 43.8535,-12.7943 54.7094,-31.7708 -4.4866,-0.2983 -8.8953,-0.8784 -13.2206,-1.7012 -9.2473,12.9555 -24.3933,21.4264 -41.4906,21.4264 -28.1015,0 -50.9622,-22.8607 -50.9622,-50.9622 0,-28.1015 22.8607,-50.9622 50.9622,-50.9622 26.063,0 47.6042,19.6677 50.5934,44.9394 h -79.0099 c -0.1891,1.9829 -0.3077,3.988 -0.3077,6.0228 0,2.0347 0.126,4.0362 0.3151,6.0209 h 91.1241 c 0.189,-1.9829 0.2947,-3.9899 0.2947,-6.0209 z"
         style="fill:#006d9b" />
      <g
         transform="matrix(1.8531711,0,0,1.8531711,798.44336,-3171.9681)"
         id="g5019">
        <path
           id="path5021"
           d="m 196.025,50.65 h -15.394 v 6.501 h 14.171 c 0.525,-2.124 0.935,-4.293 1.223,-6.501 z"
           style="fill:#006d9b" />
        <path
           id="path5023"
           d="m 171.042,38.976 c -1.149,0 -2.285,0.057 -3.414,0.14 0,3.224 -10e-4,7.235 -0.002,11.535 H 152.59 c 0.325,2.216 0.796,4.384 1.388,6.501 h 13.645 c -0.004,13.713 -0.009,27.822 -0.009,27.822 -0.002,11.693 -4.059,22.407 -10.86,30.854 2.059,0.955 4.229,1.708 6.486,2.237 6.786,-9.184 10.82,-20.521 10.884,-32.803 0,0 0.003,-31.742 0.005,-46.172 -1.021,-0.068 -2.048,-0.114 -3.087,-0.114 z"
           style="fill:#006d9b" />
      </g>
      <g
         transform="matrix(1.8531711,0,0,1.8531711,798.44336,-3171.9681)"
         id="g5025">
        <path
           id="path5027"
           d="m 496.683,50.976 c -7.959,0 -15.279,2.738 -21.073,7.321 -5.793,-4.58 -13.105,-7.321 -21.063,-7.321 -8.183,0 -15.688,2.893 -21.556,7.708 -2.021,-3.481 -4.43,-6.71 -7.168,-9.626 -1.702,1.363 -3.305,2.845 -4.796,4.432 2.813,2.988 5.226,6.354 7.169,10.005 1.184,2.227 2.187,4.562 2.996,6.984 1.33,-2.135 2.941,-4.076 4.787,-5.768 4.896,-4.49 11.416,-7.235 18.567,-7.235 15.163,0 27.5,12.336 27.5,27.5 v 34 h 6.5 v -34 c 0,-8.446 -3.086,-16.167 -8.184,-22.112 4.568,-3.381 10.213,-5.388 16.32,-5.388 15.164,0 27.501,12.336 27.501,27.5 v 34 h 6.499 v -34 c 10e-4,-18.779 -15.222,-34 -33.999,-34 z"
           style="fill:#006d9b" />
        <path
           id="path5029"
           d="m 427.051,84.976 c 0,-10.145 -3.857,-19.396 -10.166,-26.398 -1.311,1.867 -2.487,3.834 -3.514,5.891 4.487,5.636 7.18,12.76 7.18,20.508 v 34 h 6.5 V 84.976 z"
           style="fill:#006d9b" />
      </g>
      <path
         id="path5031"
         d="m 877.11789,-3084.4688 c 14.79571,-17.2901 36.75394,-28.2794 61.23989,-28.2794 24.48409,0 46.43676,10.9856 61.23248,28.2683 -5.35567,0.037 -10.63535,0.3762 -15.84091,0.9729 3.79159,3.3561 7.20698,7.1199 10.18132,11.2284 2.15709,-0.1056 4.32345,-0.1631 6.50653,-0.1631 2.6315,0 5.2389,0.098 7.8315,0.2465 4.8775,0.2817 9.6791,0.8432 14.401,1.6363 -2.1015,-4.6032 -4.5496,-9.0119 -7.3442,-13.1742 -16.63218,-24.762 -44.89489,-41.0607 -76.96772,-41.0607 -32.07098,0 -60.33184,16.2987 -76.9659,41.0589 -2.79459,4.1622 -5.24448,8.5709 -7.34412,13.1742 4.72188,-0.7932 9.52345,-1.3528 14.40099,-1.6364 2.59073,-0.1482 5.19815,-0.2464 7.8278,-0.2464 36.73355,0 69.93867,14.8679 94.01878,38.9425 14.13784,14.1415 25.06599,31.4502 31.70777,50.7528 -14.76237,18.9802 -37.79173,31.2259 -63.64347,31.2259 -25.861,0 -48.89962,-12.255 -63.66013,-31.2463 1.56222,-4.531 3.36165,-8.9508 5.38346,-13.2465 -2.65374,-4.2715 -4.84419,-8.8563 -6.51575,-13.6856 -2.56294,4.6181 -4.86457,9.3993 -6.92159,14.312 -2.0144,4.8071 -3.79159,9.744 -5.2871,14.7957 2.80385,4.1808 5.94868,8.1076 9.37704,11.7714 16.90834,18.0499 40.94026,29.3468 67.62407,29.3468 26.67084,0 50.69164,-11.2858 67.59817,-29.3172 3.432,-3.6637 6.5806,-7.5906 9.3863,-11.7713 -1.4955,-5.0666 -3.2375,-10.0331 -5.2556,-14.855 -21.79332,-52.0667 -73.07612,-88.7076 -132.97061,-89.0505 z"
         style="fill:#006d9b" />
    </g>
    <text
       xml:space="preserve"
       style="font-size:40px;font-style:normal;font-weight:normal;fill:#000000;fill-opacity:1;stroke:none;font-family:Bitstream Vera Sans"
       x="1089.2856"
       y="1889.8254"
       id="text5877"
       transform="translate(0,-3199.6075)"><tspan
         sodipodi:role="line"
         id="tspan5879"
         x="1089.2856"
         y="1889.8254" /></text>
    <rect
       style="fill:#647883;fill-opacity:1;fill-rule:nonzero;stroke:none"
       id="rect6080"
       width="2986.5327"
       height="11.11168"
       x="102.00884"
       y="-2738.5862"
       ry="5.55584" />
    <g
       id="g6918"
       transform="matrix(0.9633026,0.26841776,-0.26841776,0.9633026,-141.12308,-171.74696)">
      <g
         id="g6912">
        <rect
           style="fill:#006d9b;fill-opacity:1;fill-rule:nonzero;stroke:none"
           id="rect6612"
           width="1271.4286"
           height="945.32141"
           x="101.96227"
           y="-1136.2106"
           ry="390.0575" />
        <image
           y="-1038.5498"
           x="212.67656"
           id="image6557"
           height="750"
           width="1050"
           xlink:href="img/2009-11-15-221633_700x500_scrot.png" />
        <text
           xml:space="preserve"
           style="font-size:40px;font-style:normal;font-weight:normal;fill:#000000;fill-opacity:1;stroke:none;font-family:Bitstream Vera Sans"
           x="568.62701"
           y="-1069.3536"
           id="text6614"><tspan
             sodipodi:role="line"
             id="tspan6616"
             x="568.62701"
             y="-1069.3536"
             style="font-size:56px;font-style:normal;font-variant:normal;font-weight:bold;font-stretch:normal;fill:#ffffff;font-family:FreeMono;-inkscape-font-specification:FreeMono Bold">Instalando</tspan></text>
      </g>
    </g>
    <g
       id="g6925"
       transform="matrix(0.98178213,-0.19001013,0.19001013,0.98178213,174.45482,388.39795)">
      <rect
         style="fill:#647883;fill-opacity:1;fill-rule:nonzero;stroke:none"
         id="rect6618"
         width="1271.4286"
         height="945.32141"
         x="1282.6765"
         y="-1027.9249"
         ry="390.0575" />
      <text
         xml:space="preserve"
         style="font-size:40px;font-style:normal;font-weight:normal;fill:#000000;fill-opacity:1;stroke:none;font-family:Bitstream Vera Sans"
         x="1666.2079"
         y="-961.06793"
         id="text6622"><tspan
           sodipodi:role="line"
           id="tspan6624"
           x="1666.2079"
           y="-961.06793"
           style="font-size:56px;font-style:normal;font-variant:normal;font-weight:bold;font-stretch:normal;fill:#ffffff;font-family:FreeMono;-inkscape-font-specification:FreeMono Bold">Juego Instalado</tspan></text>
      <image
         xlink:href="img/installed.png"
         width="1050"
         height="750"
         id="image6693"
         x="1393.3909"
         y="-930.26416" />
    </g>
    <g
       id="g6931"
       transform="matrix(0.9953338,-0.09649159,0.09649159,0.9953338,-29.856975,241.39169)">
      <rect
         style="fill:#006d9b;fill-opacity:1;fill-rule:nonzero;stroke:none"
         id="rect6618-7"
         width="1271.4286"
         height="1120.3069"
         x="1845.2069"
         y="-130.75385"
         ry="462.2598" />
      <text
         xml:space="preserve"
         style="font-size:40px;font-style:normal;font-weight:normal;fill:#000000;fill-opacity:1;stroke:none;font-family:Bitstream Vera Sans"
         x="2192.9194"
         y="-59.854874"
         id="text6622-9"><tspan
           sodipodi:role="line"
           id="tspan6624-7"
           x="2192.9194"
           y="-59.854874"
           style="font-size:56px;font-style:normal;font-variant:normal;font-weight:bold;font-stretch:normal;fill:#ffffff;font-family:FreeMono;-inkscape-font-specification:FreeMono Bold">El Juego: Unidades</tspan></text>
      <image
         xlink:href="img/cunits.png"
         width="981"
         height="924"
         id="image6871"
         x="2001.5754"
         y="-35.462299" />
    </g>
    <g
       id="g3717"
       inkscape:export-filename="/home/juan/Escritorio/g3717.png"
       inkscape:export-xdpi="90"
       inkscape:export-ydpi="90">
      <rect
         transform="matrix(0.98024877,0.19776844,-0.19776844,0.98024877,0,0)"
         style="fill:#647883;fill-opacity:1;fill-rule:nonzero;stroke:none;stroke-width:7;stroke-miterlimit:4;stroke-opacity:1;stroke-dasharray:none"
         id="rect6618-7-0"
         width="1271.4286"
         height="1120.3069"
         x="762.47363"
         y="-404.19077"
         ry="462.2598" />
      <text
         transform="matrix(0.98024877,0.19776844,-0.19776844,0.98024877,0,0)"
         xml:space="preserve"
         style="font-size:40px;font-style:normal;font-weight:normal;fill:#000000;fill-opacity:1;stroke:none;font-family:Bitstream Vera Sans"
         x="1125.5272"
         y="-333.50894"
         id="text6622-9-8"><tspan
           sodipodi:role="line"
           id="tspan6624-7-0"
           x="1125.5272"
           y="-333.50894"
           style="font-size:56px;font-style:normal;font-variant:normal;font-weight:bold;font-stretch:normal;fill:#ffffff;font-family:FreeMono;-inkscape-font-specification:FreeMono Bold">El Juego:Atacando</tspan></text>
      <image
         transform="matrix(0.98024877,0.19776844,-0.19776844,0.98024877,0,0)"
         xlink:href="img/attack.png"
         width="981"
         height="924"
         id="image6871-6"
         x="918.84204"
         y="-308.89929" />
    </g>
    <text
       xml:space="preserve"
       style="font-size:48px;font-style:normal;font-variant:normal;font-weight:normal;font-stretch:normal;text-align:start;line-height:125%;writing-mode:lr-tb;text-anchor:start;fill:#006d9b;fill-opacity:1;stroke:none;font-family:Arial Black;-inkscape-font-specification:'Arial Black,'"
       x="-719.4187"
       y="481.6777"
       id="text6937"
       sodipodi:linespacing="125%"
       transform="matrix(0.5036595,-0.86390225,0.86390225,0.5036595,0,0)"><tspan
         sodipodi:role="line"
         id="tspan6939"
         x="-719.4187"
         y="481.6777">Pagina del Proyecto:</tspan><tspan
         sodipodi:role="line"
         x="-719.4187"
         y="541.67773"
         id="tspan6945">             http://code.google.com/p/steamend/</tspan><tspan
         sodipodi:role="line"
         x="-719.4187"
         y="601.67773"
         id="tspan6941">Autores: Cabral, Charif, Korol, Quirinali</tspan><tspan
         sodipodi:role="line"
         x="-719.4187"
         y="721.67773"
         id="tspan6947">Contacto: jbc.develop@gmail.com</tspan></text>
    <flowRoot
       xml:space="preserve"
       id="flowRoot2949"
       style="fill:black;stroke:none;stroke-opacity:1;stroke-width:1px;stroke-linejoin:miter;stroke-linecap:butt;fill-opacity:1;font-family:Bitstream Vera Sans;font-style:normal;font-weight:normal;font-size:40px"><flowRegion
         id="flowRegion2951"><rect
           id="rect2953"
           width="2222.3357"
           height="844.48755"
           x="-339.41125"
           y="1249.7948" /></flowRegion><flowPara
         id="flowPara2955" /></flowRoot>    <rect
       style="fill:#647883;fill-opacity:1;fill-rule:nonzero;stroke:none"
       id="rect5173-8"
       width="1655.719"
       height="589.92908"
       x="405.37366"
       y="-1494.9991"
       ry="160"
       transform="matrix(0.96807523,-0.25065983,0.25065983,0.96807523,0,0)" />
    <text
       xml:space="preserve"
       style="font-size:56px;font-style:normal;font-variant:normal;font-weight:bold;font-stretch:normal;text-align:start;line-height:125%;writing-mode:lr-tb;text-anchor:start;fill:#ffffff;fill-opacity:1;stroke:none;font-family:FreeMono;-inkscape-font-specification:FreeMono Bold"
       x="495.20511"
       y="-1416.5548"
       id="text5131-6"
       transform="matrix(0.98580904,-0.25525157,0.24615069,0.95066044,0,0)"
       sodipodi:linespacing="125%"><tspan
         sodipodi:role="line"
         x="495.20511"
         y="-1416.5548"
         style="font-size:56px;font-style:normal;font-variant:normal;font-weight:bold;font-stretch:normal;text-align:start;line-height:125%;writing-mode:lr-tb;text-anchor:start;fill:#ffffff;fill-opacity:1;font-family:FreeMono;-inkscape-font-specification:FreeMono Bold"
         id="tspan6007">* EL servidor, se configura por medio de</tspan><tspan
         sodipodi:role="line"
         x="495.20511"
         y="-1346.5548"
         style="font-size:56px;font-style:normal;font-variant:normal;font-weight:bold;font-stretch:normal;text-align:start;line-height:125%;writing-mode:lr-tb;text-anchor:start;fill:#ffffff;fill-opacity:1;font-family:FreeMono;-inkscape-font-specification:FreeMono Bold"
         id="tspan6034">  unos paquetes de juegos llamados &quot;SEGM&quot;</tspan><tspan
         sodipodi:role="line"
         x="495.20511"
         y="-1276.5548"
         style="font-size:56px;font-style:normal;font-variant:normal;font-weight:bold;font-stretch:normal;text-align:start;line-height:125%;writing-mode:lr-tb;text-anchor:start;fill:#ffffff;fill-opacity:1;font-family:FreeMono;-inkscape-font-specification:FreeMono Bold"
         id="tspan6009"> (Steamend Game Module).</tspan><tspan
         sodipodi:role="line"
         x="495.20511"
         y="-1206.5548"
         style="font-size:56px;font-style:normal;font-variant:normal;font-weight:bold;font-stretch:normal;text-align:start;line-height:125%;writing-mode:lr-tb;text-anchor:start;fill:#ffffff;fill-opacity:1;font-family:FreeMono;-inkscape-font-specification:FreeMono Bold"
         id="tspan6013">* Los diferentes archivos SEGM son en</tspan><tspan
         sodipodi:role="line"
         x="495.20511"
         y="-1136.5548"
         style="font-size:56px;font-style:normal;font-variant:normal;font-weight:bold;font-stretch:normal;text-align:start;line-height:125%;writing-mode:lr-tb;text-anchor:start;fill:#ffffff;fill-opacity:1;font-family:FreeMono;-inkscape-font-specification:FreeMono Bold"
         id="tspan6017">  realidad archivos &quot;ZIP&quot; que contienen</tspan><tspan
         sodipodi:role="line"
         x="495.20511"
         y="-1066.5548"
         style="font-size:56px;font-style:normal;font-variant:normal;font-weight:bold;font-stretch:normal;text-align:start;line-height:125%;writing-mode:lr-tb;text-anchor:start;fill:#ffffff;fill-opacity:1;font-family:FreeMono;-inkscape-font-specification:FreeMono Bold"
         id="tspan6019">  configuraciones en formato &quot;YAML&quot; y &quot;CSS&quot;</tspan><tspan
         sodipodi:role="line"
         x="495.20511"
         y="-996.55481"
         style="font-size:56px;font-style:normal;font-variant:normal;font-weight:bold;font-stretch:normal;text-align:start;line-height:125%;writing-mode:lr-tb;text-anchor:start;fill:#ffffff;fill-opacity:1;font-family:FreeMono;-inkscape-font-specification:FreeMono Bold"
         id="tspan6044">  así como recursos graficos.</tspan></text>
    <rect
       style="fill:#647883;fill-opacity:1;fill-rule:nonzero;stroke:#ffffff;stroke-width:7.04998255;stroke-miterlimit:4;stroke-opacity:1;stroke-dasharray:none"
       id="rect5689"
       width="1164.0519"
       height="155.28957"
       x="1665.5383"
       y="-1187.1799"
       ry="59.936329"
       transform="matrix(0.99999518,-0.00310553,0.00798208,0.99996814,0,0)" />
    <text
       xml:space="preserve"
       style="font-size:28.52492714px;font-style:normal;font-weight:normal;fill:#000000;fill-opacity:1;stroke:none;font-family:Bitstream Vera Sans"
       x="2021.9415"
       y="-1159.5415"
       id="text5691"
       transform="matrix(1.0576625,-0.00328462,0.00754695,0.94545776,0,0)"><tspan
         sodipodi:role="line"
         id="tspan5693"
         x="2021.9415"
         y="-1159.5415"
         style="font-size:51.34486389px;font-weight:bold;-inkscape-font-specification:Andale Mono Bold">Django</tspan></text>
    <rect
       style="fill:#006d9b;fill-opacity:1;fill-rule:nonzero;stroke:#ffffff;stroke-width:7.04998255;stroke-miterlimit:4;stroke-opacity:1;stroke-dasharray:none"
       id="rect5689-7"
       width="1166.9445"
       height="155.28957"
       x="1664.092"
       y="-1347.8837"
       ry="59.936329"
       transform="matrix(0.99999518,-0.00310553,0.00798208,0.99996814,0,0)" />
    <text
       xml:space="preserve"
       style="font-size:28.52492714px;font-style:normal;font-weight:normal;fill:#000000;fill-opacity:1;stroke:none;font-family:Bitstream Vera Sans"
       x="1966.0337"
       y="-1329.5114"
       id="text5691-8"
       transform="matrix(1.0576625,-0.00328462,0.00754695,0.94545776,0,0)"><tspan
         sodipodi:role="line"
         id="tspan5693-7"
         x="1966.0337"
         y="-1329.5114"
         style="font-size:51.34486389px;font-weight:bold;-inkscape-font-specification:Andale Mono Bold">Game Conf.</tspan></text>
    <rect
       style="fill:#647883;fill-opacity:1;fill-rule:nonzero;stroke:#ffffff;stroke-width:7.04998255;stroke-miterlimit:4;stroke-opacity:1;stroke-dasharray:none"
       id="rect5689-7-0"
       width="407.96555"
       height="155.28957"
       x="2423.0698"
       y="-1508.0929"
       ry="59.936329"
       transform="matrix(0.99999518,-0.00310553,0.00798208,0.99996814,0,0)" />
    <text
       xml:space="preserve"
       style="font-size:28.52492714px;font-style:normal;font-weight:normal;fill:#000000;fill-opacity:1;stroke:none;font-family:Bitstream Vera Sans"
       x="2406.8391"
       y="-1489.7034"
       id="text5691-8-4"
       transform="matrix(1.0576625,-0.00328462,0.00754695,0.94545776,0,0)"><tspan
         sodipodi:role="line"
         id="tspan5693-7-0"
         x="2406.8391"
         y="-1489.7034"
         style="font-size:51.34486389px;font-weight:bold;-inkscape-font-specification:Andale Mono Bold">SEGM</tspan></text>
    <rect
       style="fill:#647883;fill-opacity:1;fill-rule:nonzero;stroke:#ffffff;stroke-width:7.04998255;stroke-miterlimit:4;stroke-opacity:1;stroke-dasharray:none"
       id="rect5689-7-0-3"
       width="745.38232"
       height="155.28957"
       x="1666.598"
       y="-1508.1775"
       ry="59.936329"
       transform="matrix(0.99999518,-0.00310553,0.00798208,0.99996814,0,0)" />
    <text
       xml:space="preserve"
       style="font-size:28.52492714px;font-style:normal;font-weight:normal;fill:#000000;fill-opacity:1;stroke:none;font-family:Bitstream Vera Sans"
       x="1748.7697"
       y="-1494.3207"
       id="text5691-8-4-2"
       transform="matrix(1.0576625,-0.00328462,0.00754695,0.94545776,0,0)"><tspan
         sodipodi:role="line"
         id="tspan5693-7-0-6"
         x="1748.7697"
         y="-1494.3207"
         style="font-size:51.34486389px;font-weight:bold;-inkscape-font-specification:Andale Mono Bold">Game Logic</tspan></text>
    <rect
       style="fill:#006d9b;fill-opacity:1;fill-rule:nonzero;stroke:#ffffff;stroke-width:7.04998255;stroke-miterlimit:4;stroke-opacity:1;stroke-dasharray:none"
       id="rect5689-7-0-7"
       width="407.96555"
       height="155.28957"
       x="2423.0698"
       y="-1666.7826"
       ry="59.936329"
       transform="matrix(0.99999518,-0.00310553,0.00798208,0.99996814,0,0)" />
    <text
       xml:space="preserve"
       style="font-size:28.52492714px;font-style:normal;font-weight:normal;fill:#000000;fill-opacity:1;stroke:none;font-family:Bitstream Vera Sans"
       x="2361.0222"
       y="-1661.6188"
       id="text5691-8-4-3"
       transform="matrix(1.0576625,-0.00328462,0.00754695,0.94545776,0,0)"><tspan
         sodipodi:role="line"
         id="tspan5693-7-0-3"
         x="2361.0222"
         y="-1661.6188"
         style="font-size:51.34486389px;font-weight:bold;-inkscape-font-specification:Andale Mono Bold">Installer</tspan></text>
    <rect
       style="fill:#006d9b;fill-opacity:1;fill-rule:nonzero;stroke:#ffffff;stroke-width:7.04998255;stroke-miterlimit:4;stroke-opacity:1;stroke-dasharray:none"
       id="rect5689-7-0-7-9"
       width="745.38245"
       height="155.28957"
       x="1666.598"
       y="-1667.4481"
       ry="59.936329"
       transform="matrix(0.99999518,-0.00310553,0.00798208,0.99996814,0,0)" />
    <text
       xml:space="preserve"
       style="font-size:28.52492714px;font-style:normal;font-weight:normal;fill:#000000;fill-opacity:1;stroke:none;font-family:Bitstream Vera Sans"
       x="1607.822"
       y="-1667.4999"
       id="text5691-8-4-2-9"
       transform="matrix(1.0576625,-0.00328462,0.00754695,0.94545776,0,0)"><tspan
         sodipodi:role="line"
         id="tspan5693-7-0-6-1"
         x="1607.822"
         y="-1667.4999"
         style="font-size:51.34486389px;font-weight:bold;-inkscape-font-specification:Andale Mono Bold">Player and Auto Tasks</tspan></text>
    <flowRoot
       xml:space="preserve"
       id="flowRoot2945"
       style="fill:black;stroke:none;stroke-opacity:1;stroke-width:1px;stroke-linejoin:miter;stroke-linecap:butt;fill-opacity:1;font-family:Bitstream Vera Sans;font-style:normal;font-weight:normal;font-size:40px"><flowRegion
         id="flowRegion2947"><rect
           id="rect2949"
           width="149.50258"
           height="258.59906"
           x="408.10162"
           y="3653.958" /></flowRegion><flowPara
         id="flowPara2951"></flowPara></flowRoot>  </g>
</svg>
