<?xml version="1.0" encoding="UTF-8" standalone="no"?>
<!-- Created with Inkscape (http://www.inkscape.org/) -->

<svg
   xmlns:dc="http://purl.org/dc/elements/1.1/"
   xmlns:cc="http://creativecommons.org/ns#"
   xmlns:rdf="http://www.w3.org/1999/02/22-rdf-syntax-ns#"
   xmlns:svg="http://www.w3.org/2000/svg"
   xmlns="http://www.w3.org/2000/svg"
   xmlns:sodipodi="http://sodipodi.sourceforge.net/DTD/sodipodi-0.dtd"
   xmlns:inkscape="http://www.inkscape.org/namespaces/inkscape"
   width="566.92914"
   height="318.89764"
   id="svg2"
   sodipodi:version="0.32"
   inkscape:version="0.47 r22583"
   sodipodi:docname=" background.svg"
   inkscape:output_extension="org.inkscape.output.svg.inkscape"
   inkscape:export-filename="/home/ralsina/Desktop/proyectos/rst/trunk/rst2pdf/tests/input/background.png"
   inkscape:export-xdpi="120"
   inkscape:export-ydpi="120"
   version="1.0">
  <defs
     id="defs4">
    <linearGradient
       id="linearGradient3155">
      <stop
         style="stop-color:#000000;stop-opacity:1;"
         offset="0"
         id="stop3157" />
      <stop
         id="stop3163"
         offset="0.06521739"
         style="stop-color:#000000;stop-opacity:0.49803922;" />
      <stop
         style="stop-color:#000000;stop-opacity:0.24705882;"
         offset="0.14650284"
         id="stop3165" />
      <stop
         style="stop-color:#000000;stop-opacity:0;"
         offset="1"
         id="stop3159" />
    </linearGradient>
    <inkscape:perspective
       sodipodi:type="inkscape:persp3d"
       inkscape:vp_x="0 : 526.18109 : 1"
       inkscape:vp_y="0 : 1000 : 0"
       inkscape:vp_z="744.09448 : 526.18109 : 1"
       inkscape:persp3d-origin="372.04724 : 350.78739 : 1"
       id="perspective10" />
    <inkscape:perspective
       id="perspective3688"
       inkscape:persp3d-origin="0.5 : 0.33333333 : 1"
       inkscape:vp_z="1 : 0.5 : 1"
       inkscape:vp_y="0 : 1000 : 0"
       inkscape:vp_x="0 : 0.5 : 1"
       sodipodi:type="inkscape:persp3d" />
  </defs>
  <sodipodi:namedview
     id="base"
     pagecolor="#ffffff"
     bordercolor="#666666"
     borderopacity="1.0"
     gridtolerance="10000"
     guidetolerance="10"
     objecttolerance="10"
     inkscape:pageopacity="0.0"
     inkscape:pageshadow="2"
     inkscape:zoom="1.7744722"
     inkscape:cx="283.46457"
     inkscape:cy="159.44882"
     inkscape:document-units="px"
     inkscape:current-layer="layer1"
     showgrid="false"
     inkscape:window-width="1440"
     inkscape:window-height="842"
     inkscape:window-x="0"
     inkscape:window-y="28"
     units="cm"
     inkscape:window-maximized="0" />
  <metadata
     id="metadata7">
    <rdf:RDF>
      <cc:Work
         rdf:about="">
        <dc:format>image/svg+xml</dc:format>
        <dc:type
           rdf:resource="http://purl.org/dc/dcmitype/StillImage" />
        <dc:title></dc:title>
      </cc:Work>
    </rdf:RDF>
  </metadata>
  <g
     inkscape:label="Layer 1"
     inkscape:groupmode="layer"
     id="layer1">
    <rect
       style="opacity:0.98999999;fill:#025d9e;fill-opacity:1;stroke:none"
       id="rect2825"
       width="567.8067"
       height="318.54498"
       x="-0.19617917"
       y="0.4449746" />
    <path
       sodipodi:type="arc"
       style="opacity:0.98999999;fill:#ffffff;fill-opacity:1;stroke:#ffffff;stroke-width:8.50039387;stroke-miterlimit:4;stroke-opacity:0.82198953;stroke-dasharray:none"
       id="path3755"
       sodipodi:cx="909.80627"
       sodipodi:cy="120.47411"
       sodipodi:rx="260.27368"
       sodipodi:ry="167.56558"
       d="m 1170.08,120.47411 a 260.27368,167.56558 0 1 1 -520.54741,0 260.27368,167.56558 0 1 1 520.54741,0 z"
       transform="matrix(1.0708891,0,0,1.4949892,-208.88134,-13.931323)" />
    <g
       id="g2955"
       transform="matrix(0.11060421,0,0,0.11060421,387.63181,52.929063)">
      <path
         style="fill:#fafbfc"
         d="m 1023.5321,985.94171 0,-256 252.5,0 252.5,0 0,256 0,255.99999 -252.5,0 -252.5,0 0,-255.99999 z"
         id="path2971" />
      <path
         style="fill:#aecbdf"
         d="m 1048.7383,1235.9283 c -2.9439,-0.4331 -7.0737,-1.9567 -9.3035,-3.4323 -4.3951,-2.9085 -9.3736,-9.9908 -10.9096,-15.5198 -0.6293,-2.2652 -0.9839,-85.4394 -0.9875,-231.60299 0,-198.28152 0.1874,-228.71828 1.4719,-233.04368 1.7849,-6.01056 7.2513,-12.662 12.8799,-15.67231 l 4.1426,-2.21551 230.5,0 c 219.7844,0 230.6677,0.0835 234.1076,1.79636 5.2825,2.63039 9.8869,7.51143 12.5574,13.31188 l 2.3518,5.10825 -0.2584,231.89175 -0.2584,231.89175 -2.1624,4 c -2.797,5.174 -7.8066,9.9345 -12.8376,12.1993 -3.8115,1.7159 -14.6476,1.807 -230,1.9334 -124.3,0.073 -228.3822,-0.2177 -231.2938,-0.6461 z m 459.4705,-11.5785 c 1.5528,-1.1506 3.8358,-3.5797 5.0733,-5.3979 l 2.25,-3.306 -0.016,-230.10207 -0.016,-230.10212 -2.2335,-3.8959 c -1.2285,-2.14274 -3.8016,-4.73024 -5.718,-5.75 -3.3636,-1.78983 -11.3743,-1.8541 -231.1021,-1.8541 l -227.6177,0 -3.306,2.25 c -1.8182,1.2375 -4.2473,3.52047 -5.3979,5.07327 l -2.0919,2.82328 -0.2722,229.17672 c -0.2434,204.83492 -0.1079,229.61212 1.2751,233.27602 1.9088,5.0567 5.3246,8.3786 9.6818,9.4157 1.8234,0.4339 105.3198,0.7206 229.992,0.637 l 226.6768,-0.152 2.8232,-2.0919 z m -460.4353,-4.7333 c -1.2423,-0.6899 -3.0423,-2.3615 -4,-3.7146 -1.6405,-2.3176 -1.7586,-15.4109 -2.0386,-225.96019 -0.1634,-122.925 -0.01,-225.93906 0.3433,-228.92014 0.4839,-4.09585 1.3317,-6.11154 3.4702,-8.25 l 2.8299,-2.82986 228.0611,0 228.0612,0 3.2657,2.91793 3.2658,2.91794 0.25,228.33206 c 0.2483,226.81216 0.2366,228.35386 -1.7505,231.60696 -1.1002,1.8012 -3.1545,3.7137 -4.5651,4.25 -4.1708,1.5858 -454.328,1.241 -457.193,-0.3501 z m 105.7229,-12.2477 c 1.2739,-1.2415 0.8671,-1.4271 -3.1276,-1.4271 -4.3967,0 -7.6713,1.8321 -6.094,3.4094 1.0639,1.0638 7.52,-0.324 9.2216,-1.9823 z m 82.1304,1.187 c -0.8771,-1.0568 -0.6777,-3.5074 0.8397,-10.3197 2.7827,-12.4926 2.6681,-12.2944 7.1075,-12.2944 2.1053,0 5.0947,-0.5214 6.643,-1.1588 2.8116,-1.1573 2.8092,-1.1597 -1.8846,-1.9099 -6.0585,-0.9683 -6.8056,-1.491 -6.7746,-4.7403 0.047,-4.8796 3.7563,-19.2926 5.4463,-21.1601 1.0934,-1.2082 1.2947,-2.057 0.591,-2.492 -0.6475,-0.4001 -0.8195,-2.2094 -0.4374,-4.5993 0.712,-4.452 0.5141,-4.5687 -3.9253,-2.3146 -5.5165,2.801 -5.9044,3.3892 -3.5127,5.3258 l 2.1477,1.7391 -1.7349,8.9051 c -4.3469,22.3121 -9.7917,42.9186 -11.799,44.655 -1.9668,1.7014 -1.8778,1.75 3.2103,1.75 4.3469,0 5.0384,-0.2347 4.083,-1.3859 z m 50.5319,-0.5319 c 5.141,-2.3345 6.8513,-4.4933 2.304,-2.9081 -1.8734,0.653 -5.8743,0.8395 -9.9284,0.4627 -6.8265,-0.6344 -8.0022,-0.1283 -8.0022,3.445 0,1.6771 11.3278,0.9525 15.6266,-0.9996 z m 12.3743,-12.0856 c 0.9835,-1.9269 2.9902,-8.9019 4.4593,-15.5 1.4691,-6.5981 3.788,-16.4377 5.1531,-21.8656 1.3651,-5.428 2.274,-10.077 2.02,-10.3311 -0.2541,-0.2541 -1.3266,8e-4 -2.3833,0.5663 -1.3746,0.7357 -2.8336,4.386 -5.1281,12.831 -1.7638,6.4915 -3.3884,13.6028 -3.6102,15.8028 -0.6259,6.2061 -3.3194,18.1039 -5.0197,22.1734 l -1.5362,3.6765 2.1285,-1.9249 c 1.1707,-1.0588 2.9332,-3.5015 3.9166,-5.4284 z m -131.6732,-5.3424 c 1.3747,-3.4338 4.1582,-12.5233 6.1855,-20.1988 2.0274,-7.6755 4.2992,-14.647 5.0486,-15.4923 0.7498,-0.8457 1.1068,-2.5143 0.794,-3.7106 -0.3127,-1.1955 0.8472,-6.9736 2.5775,-12.8401 1.7304,-5.8665 2.9487,-10.8638 2.7074,-11.1051 -1.7941,-1.7941 -10.6407,17.5459 -10.6407,23.2622 0,0.8213 -0.6718,1.7511 -1.4929,2.0662 -0.9602,0.3684 -1.2972,1.3526 -0.9443,2.7584 0.5703,2.2724 -5.5257,31.4151 -8.0943,38.6951 -1.8143,5.1423 -1.8184,5.4461 -0.054,3.982 0.7778,-0.6454 2.5389,-3.9831 3.9136,-7.417 z m 37.3572,-5.7318 2.8151,-1.0777 -3.2576,-1.3773 c -4.1795,-1.767 -5.5555,-5.3627 -4.9709,-12.9895 0.4481,-5.8463 2.2756,-10.7986 6.2652,-16.9779 l 1.9369,-3 -3.4868,2.6025 c -1.9893,1.4848 -4.9201,5.3843 -6.8242,9.0798 -2.717,5.2732 -3.3677,7.7325 -3.5,13.2283 -0.1506,6.2514 0.045,6.9299 2.6432,9.1702 3.1391,2.7067 4.3194,2.8957 8.3791,1.3416 z m 125.7717,-2.3003 2.9565,-2.0524 -2.4476,-0.5778 c -3.9261,-0.9269 -4.5256,-4.5377 -2.4197,-14.573 1.0174,-4.848 2.6001,-9.5648 3.5172,-10.4819 1.0616,-1.0616 1.3696,-2.1994 0.8478,-3.1319 -0.4658,-0.8324 -0.2077,-3.7842 0.598,-6.8383 0.7796,-2.9556 1.243,-5.5483 1.0297,-5.7616 -0.2133,-0.2133 -1.2943,-0.1001 -2.4022,0.2516 -1.4766,0.4686 -2.3166,2.0947 -3.1461,6.0906 -0.6225,2.9982 -1.7736,6.0931 -2.5581,6.8776 -0.7845,0.7845 -1.1669,2.1025 -0.8498,2.929 0.3171,0.8263 -0.6595,6.8987 -2.1704,13.4941 -2.6042,11.3681 -2.6602,12.124 -1.0775,14.5396 1.8361,2.8022 3.1629,2.6771 8.1222,-0.7656 z m 74.2283,2.3003 2.8151,-1.0777 -3.2576,-1.3773 c -4.1795,-1.767 -5.5555,-5.3627 -4.9709,-12.9895 0.4481,-5.8463 2.2756,-10.7986 6.2652,-16.9779 l 1.9369,-3 -3.4868,2.6025 c -1.9893,1.4848 -4.9201,5.3843 -6.8242,9.0798 -2.717,5.2732 -3.3677,7.7325 -3.5,13.2283 -0.1506,6.2514 0.045,6.9299 2.6432,9.1702 3.1391,2.7067 4.3194,2.8957 8.3791,1.3416 z m -304.9048,-2.0955 c 3.3445,-2.067 3.4102,-2.2123 1.3459,-2.976 -1.1937,-0.4416 -2.4541,-1.5424 -2.801,-2.4463 -0.3469,-0.9039 0.8296,-7.9232 2.6144,-15.5984 1.7848,-7.6753 3.0222,-14.1779 2.7498,-14.4504 -0.2725,-0.2724 -2.4189,0.486 -4.7698,1.6853 -3.5758,1.8242 -4.0003,2.3342 -2.5969,3.1195 2.3824,1.3333 2.1118,4.8847 -1.393,18.2875 -1.6888,6.4581 -2.8279,12.3742 -2.5314,13.1469 0.7694,2.005 3.3254,1.739 7.382,-0.7681 z m 43.3717,0.096 c 3.9909,-2.036 4.03,-2.1069 1.9602,-3.5567 -2.8735,-2.0127 -2.7007,-4.6129 1.3178,-19.83 1.8829,-7.1303 3.206,-13.3162 2.9401,-13.7464 -0.4648,-0.7521 -5.5514,1.409 -8.0999,3.4414 -0.9404,0.7499 -0.7523,1.3681 0.7983,2.625 2.0267,1.6428 2.0255,1.6561 -1.5321,16.1412 -3.2293,13.1484 -3.689,17.0029 -2.0277,17.0029 0.3141,0 2.4036,-0.9348 4.6433,-2.0774 z m 142.7541,-0.01 3.4058,-2.0764 -2.4058,-1.1927 c -3.4931,-1.7317 -3.4763,-5.5045 0.087,-19.6198 1.7037,-6.7484 2.8958,-12.4717 2.6491,-12.7183 -0.2466,-0.2467 -2.3719,0.5328 -4.7229,1.7321 -3.5757,1.8242 -4.0002,2.3342 -2.5969,3.1195 2.2648,1.2674 2.1577,2.5212 -1.3897,16.2751 -4.164,16.1445 -3.0547,19.3746 4.9731,14.4805 z m 89.9527,0.029 c 3.1305,-1.9086 3.2493,-2.1683 1.75,-3.825 -2.2506,-2.4868 -2.0534,-4.8719 1.5977,-19.3286 1.7654,-6.9898 2.8813,-13.0371 2.4798,-13.4386 -0.4015,-0.4015 -2.8576,0.31 -5.458,1.5812 -4.3729,2.1375 -4.5591,2.3746 -2.4781,3.1563 2.9875,1.1223 2.8991,3.088 -0.8277,18.4096 -2.861,11.7624 -3.1517,15.5057 -1.2037,15.4964 0.4298,0 2.2928,-0.9251 4.14,-2.0513 z m 85.2932,-0.022 c 3.9909,-2.036 4.03,-2.1069 1.9601,-3.5567 -2.8734,-2.0127 -2.7006,-4.6129 1.3179,-19.83 1.8829,-7.1303 3.206,-13.3162 2.9401,-13.7464 -0.4648,-0.7521 -5.5514,1.409 -8.0999,3.4414 -0.9404,0.7499 -0.7523,1.3681 0.7983,2.625 2.0267,1.6428 2.0255,1.6561 -1.5321,16.1412 -3.2293,13.148 -3.689,17.0025 -2.0277,17.0025 0.3141,0 2.4036,-0.9348 4.6433,-2.0774 z m -341.4137,-0.173 c 0.5406,-0.6875 1.9999,-5.525 3.2429,-10.75 1.243,-5.225 2.9521,-10.6056 3.7981,-11.9568 1.3982,-2.2335 2.7627,-14.0432 1.6225,-14.0432 -0.2647,0 -2.3432,0.9499 -4.619,2.1109 -3.4701,1.7703 -3.867,2.2624 -2.4601,3.0497 0.9226,0.5163 1.6775,1.9934 1.6775,3.2824 0,2.0243 -4.6363,21.6849 -6.4936,27.5369 -0.7312,2.3039 1.5905,2.8572 3.2317,0.7701 z m 232.0605,-0.01 c 0.5739,-0.6915 2.2388,-5.979 3.6997,-11.75 1.461,-5.7709 3.2588,-11.1676 3.9952,-11.9927 0.7365,-0.825 1.1176,-2.6414 0.847,-4.0365 -0.5098,-2.6284 2.4552,-15.5628 5.6637,-24.7069 1.7821,-5.0789 1.7823,-5.2127 0.01,-4.2626 -3.9256,2.1009 -6.145,8.175 -11.5384,31.578 -3.0101,13.0616 -5.473,24.3513 -5.473,25.0882 0,1.6874 1.4317,1.7295 2.7986,0.082 z m 85.9395,0.01 c 0.5406,-0.6875 1.9999,-5.525 3.2429,-10.75 1.243,-5.225 2.9521,-10.6056 3.7981,-11.9568 1.3982,-2.2335 2.7627,-14.0432 1.6225,-14.0432 -0.2647,0 -2.3432,0.9499 -4.619,2.1109 -3.4701,1.7703 -3.867,2.2624 -2.4601,3.0497 0.9226,0.5163 1.6775,1.9934 1.6775,3.2824 0,2.0243 -4.6363,21.6849 -6.4936,27.5369 -0.7312,2.3039 1.5905,2.8572 3.2317,0.7701 z m -215.3937,-12.0247 c 3.3458,-7.0888 5.1147,-16.4214 3.7761,-19.923 -1.5401,-4.0288 -5.2334,-6.0593 -9.5488,-5.2497 -4.6419,0.8708 -5.3162,2.0485 -1.5985,2.792 6.8984,1.3797 7.9362,12.8411 2.2608,24.9691 l -3.172,6.7783 2.9081,-2.0707 c 1.5994,-1.1389 4.0179,-4.4221 5.3743,-7.296 z m 43.7566,0.046 c 2.7054,-5.2597 5.1556,-16.59 4.4273,-20.4724 -0.8982,-4.7878 -3.5617,-5.8201 -8.9111,-3.4538 -5.2576,2.3257 -6.5638,3.9474 -2.7256,3.3841 3.9614,-0.5814 6.1084,1.9622 6.1084,7.2369 0,4.9092 -3.1849,16.0703 -5.4355,19.0481 -2.5977,3.437 -1.6941,3.983 1.5271,0.9229 1.7004,-1.6154 3.9546,-4.615 5.0094,-6.6658 z m 156.2434,-0.046 c 3.3458,-7.0888 5.1147,-16.4214 3.7761,-19.923 -1.5401,-4.0288 -5.2334,-6.0593 -9.5488,-5.2497 -4.6419,0.8708 -5.3162,2.0485 -1.5985,2.792 6.8984,1.3797 7.9362,12.8411 2.2608,24.9691 l -3.172,6.7783 2.9081,-2.0707 c 1.5994,-1.1389 4.0179,-4.4221 5.3743,-7.296 z m -314.3842,-38.1773 c 1.1738,-1.4143 0.5866,-5.5797 -0.7776,-5.5162 -2.1176,0.099 -4.3093,2.9936 -3.7059,4.8948 0.7667,2.4155 2.7647,2.6924 4.4835,0.6214 z m 92.5809,-11.6145 c 0.3626,-0.5866 0.4351,-1.2906 0.1612,-1.5645 -0.7979,-0.7979 -7.7023,0.7639 -7.7023,1.7423 0,1.2647 6.7479,1.1056 7.5411,-0.1778 z m 181.1138,-0.4766 c 0.9339,-2.4336 -0.3318,-2.8703 -4.6065,-1.5896 -5.7237,1.7149 -5.9844,3.1327 -0.576,3.1327 3.2148,0 4.7678,-0.4624 5.1825,-1.5431 z m -58.1899,-6.9898 c 11.8713,-3.0921 20.7396,-9.9962 25.8529,-20.1269 3.8596,-7.6468 4.8421,-14.3853 4.4969,-30.8402 l -0.3148,-15 -39.5,-0.5 -39.5,-0.5 0,-5.5 0,-5.5 65,-0.5 c 64.8043,-0.4985 65.017,-0.5069 70.6448,-2.7825 11.0068,-4.4506 16.5169,-10.0099 21.148,-21.3369 2.1369,-5.2266 2.2091,-6.6826 2.5222,-50.88059 0.2246,-31.70207 -0.03,-47.3094 -0.8393,-51.46667 -3.1742,-16.30439 -14.2451,-27.36807 -30.5156,-30.49572 -3.3869,-0.65105 -12.4362,-1.01443 -20.9601,-0.84165 l -15,0.30404 -0.5273,22.5 c -0.6009,25.64125 -1.1398,27.89631 -9.6399,40.34355 -5.2447,7.68019 -14.6953,15.04617 -24.1995,18.8615 -5.5148,2.21385 -6.6748,2.27254 -55.1333,2.78935 -48.0139,0.51207 -49.6615,0.59373 -54.8806,2.72032 -11.3504,4.62485 -18.8681,12.05854 -23.2937,23.03319 -2.2779,5.64887 -2.3249,6.503 -2.6237,47.59748 -0.3215,44.2331 -0.032,48.1193 4.2736,57.4076 2.8519,6.152 10.5087,14.178 16.3864,17.1766 9.1783,4.6824 12.0879,4.9349 57.6779,5.0046 35.5987,0.054 44.0574,-0.1992 48.9251,-1.4671 z m -11.6065,-18.6246 c -10.3856,-6.0223 -10.3025,-21.8524 0.1455,-27.7246 10.6904,-6.0083 23.996,1.6893 23.996,13.8821 0,12.2211 -13.5444,19.9874 -24.1415,13.8425 z m -127.8148,-83.3425 c 0.6199,-26.22804 1.1259,-28.37825 9.4102,-39.98759 6.2058,-8.69663 16.1794,-16.02347 27.0176,-19.84766 1.9068,-0.67281 21.547,-1.27157 53.0285,-1.61666 l 50,-0.54808 7.128,-3.34182 c 8.9862,-4.21298 15.2513,-10.50655 19.5693,-19.65818 l 3.3027,-7 0,-45 c 0,-40.72824 -0.1706,-45.48883 -1.797,-50.14948 -3.9219,-11.23879 -12.3373,-20.04057 -23.4509,-24.52764 -5.6732,-2.29054 -6.3602,-2.32648 -50.1092,-2.6213 -29.8316,-0.20102 -46.1131,0.0656 -49.7195,0.81432 -12.124,2.51693 -22.4828,10.22552 -27.7413,20.64389 -3.8596,7.64684 -4.8421,14.38531 -4.4969,30.84021 l 0.3148,15 39.5,0.5 39.5,0.5 0,5.5 0,5.5 -65,0.5 c -64.1325,0.49333 -65.0718,0.52941 -70.3806,2.70356 -11.3386,4.64357 -16.9013,10.16037 -21.3276,21.15162 -2.2292,5.53533 -2.2796,6.5274 -2.6012,51.14482 -0.2287,31.72288 0.024,47.30667 0.8337,51.46669 2.3041,11.8352 9.0281,21.4043 18.4757,26.2937 8.2603,4.2749 13.599,5.1081 31.5,4.9164 l 16.5,-0.1768 0.5437,-23 z m 37.8148,-166.65749 c -10.3856,-6.02229 -10.3025,-21.85246 0.1455,-27.72461 10.6904,-6.0083 23.996,1.68927 23.996,13.88211 0,12.22109 -13.5444,19.98734 -24.1415,13.8425 z"
         id="path2969" />
      <path
         style="fill:#8fb7d3"
         d="m 1047.1214,1234.83 c -8.2317,-1.9445 -14.6644,-8.1647 -17.2178,-16.6489 -1.1447,-3.8037 -1.3715,-42.3666 -1.3715,-233.22018 0,-252.15315 -0.4837,-233.33719 6.207,-241.45422 1.7332,-2.10264 5.4332,-4.88554 8.2221,-6.18422 l 5.0709,-2.36123 229,0.0122 c 219.967,0.0117 229.1593,0.0846 233.0387,1.84674 5.0878,2.31107 11.7469,9.79385 13.2853,14.92837 0.8869,2.96013 1.1706,60.56868 1.154,234.30918 -0.022,229.61546 -0.029,230.39896 -2.0589,234.88396 -2.5115,5.5482 -6.1827,9.516 -11.4191,12.3416 l -4,2.1584 -228,0.156 c -136.5659,0.093 -229.5683,-0.2144 -231.9107,-0.7677 z m 463.0249,-11.1227 c 2.026,-1.7789 4.2917,-4.6894 5.0348,-6.4678 1.1213,-2.6839 1.351,-42.1327 1.351,-232.05378 l 0,-228.82023 -2.25,-4.46189 c -1.6437,-3.25955 -3.4523,-5.0682 -6.7119,-6.71189 l -4.4619,-2.25 -226.3202,0 c -188.8842,0 -226.8602,0.22563 -229.5848,1.36403 -4.1348,1.72762 -8.3068,6.64974 -9.6889,11.43104 -0.7513,2.59883 -0.9832,71.77351 -0.7767,231.70493 0.2943,227.93619 0.295,228.00099 2.3485,231.49659 1.1297,1.9231 3.5588,4.5106 5.3978,5.75 l 3.3439,2.2534 229.3173,0 229.3173,0 3.6838,-3.2344 z m -463.8484,-6.6835 -3.2658,-2.918 -0.252,-227.33202 c -0.2382,-214.89836 -0.1562,-227.5235 1.5,-230.83207 1.2643,-2.52574 2.8269,-3.85094 5.6136,-4.76073 3.0701,-1.00234 50.0521,-1.2073 229.2273,-1 l 225.3658,0.26073 2.7726,2.77269 2.7727,2.77268 0.2617,227.72732 c 0.1951,169.8015 -0.031,228.4369 -0.8879,230.5171 -2.5396,6.164 15.9422,5.7102 -232.5805,5.7102 l -227.2617,0 -3.2658,-2.9179 z m 104.7184,-7.0821 c 1.8782,0 10.4143,-7.8709 12.9236,-11.9164 3.4787,-5.6086 6.3002,-13.4694 10.0465,-27.9901 1.9023,-7.3736 3.8158,-13.756 4.2522,-14.1832 0.4364,-0.4271 2.4904,-0.9192 4.5644,-1.0935 4.7574,-0.3997 4.9301,-2.2146 0.25,-2.6272 -2.5225,-0.2223 -3.5209,-0.7915 -3.5209,-2.007 0,-2.9524 4.7383,-19.0557 6.752,-22.9468 1.828,-3.5324 2.227,-3.7527 7.3287,-4.0463 5.9914,-0.3448 10.2503,-2.8651 7.4705,-4.4208 -4.1277,-2.3099 -16.9124,5.2491 -21.9982,13.0066 -1.343,2.0486 -3.3365,6.981 -4.4299,10.961 -2.4876,9.0546 -2.6253,9.2637 -6.1003,9.2637 -1.5726,0 -3.5684,0.2722 -4.4353,0.6048 -2.5324,0.9718 -0.7664,2.3952 2.9715,2.3952 4.2874,0 4.2812,-0.2622 0.4155,17.5552 -3.8061,17.543 -6.4788,25.7022 -9.656,29.4782 -2.1231,2.5231 -3.2073,2.9666 -7.2524,2.9666 -3.4346,0 -5.2432,0.5382 -6.5091,1.937 -2.3768,2.6264 -1.0643,4.4145 2.6893,3.6638 1.652,-0.3305 3.5591,-0.6008 4.2379,-0.6008 z m 92.0158,0 c 0.3584,-0.5799 -0.6155,-1 -2.3185,-1 -5.0049,0 -5.4682,-1.6928 -3.166,-11.5664 2.2731,-9.7486 3.3919,-11.7564 6.0765,-10.9044 6.2955,1.9981 20.2561,-8.4981 23.7604,-17.8641 5.261,-14.0614 4.5033,-23.6651 -1.8671,-23.6651 -3.6121,0 -5.8219,1.0514 -11.8575,5.6418 -2.4047,1.8289 -4.7682,3.0805 -5.2522,2.7814 -0.4839,-0.2992 -0.5964,-2.3167 -0.25,-4.4836 0.4598,-2.875 0.2816,-3.9396 -0.6594,-3.9396 -1.5422,0 -13.9662,7.1474 -13.9662,8.0346 0,0.3405 1.3448,0.4217 2.9885,0.1804 2.1759,-0.3193 3.168,0.029 3.6486,1.2817 0.7129,1.8578 -1.6994,14.3564 -7.2988,37.8155 -3.168,13.2728 -3.7912,14.9095 -5.997,15.7482 -1.3539,0.5147 -2.183,1.3867 -1.8425,1.9377 0.807,1.3057 17.1944,1.3074 18.0012,0 z m 0.4328,-29.581 c -1.0573,-1.2739 -1.0845,-2.8762 -0.1403,-8.25 2.1656,-12.3253 2.8046,-13.6479 8.4827,-17.5586 8.9729,-6.1799 12.3312,-4.5235 11.4664,5.6555 -0.6094,7.1729 -3.7026,15.0099 -7.493,18.9841 -2.046,2.1452 -3.5443,2.75 -6.8132,2.75 -2.6004,0 -4.6884,-0.5999 -5.5026,-1.581 z m 43.8205,28.2086 c 1.5453,-0.7991 4.8891,-3.6761 7.4307,-6.3932 5.7618,-6.1599 5.4561,-5.1799 16.528,-52.9844 0.3632,-1.5679 0.065,-2.25 -0.9846,-2.25 -3.4399,0 -5.5635,3.6155 -8.223,14 -2.9028,11.3341 -4.455,13.7721 -10.5055,16.5005 -7.9955,3.6055 -8.6436,0.5443 -3.8606,-18.2354 1.726,-6.7771 2.823,-12.6371 2.4378,-13.0223 -0.7858,-0.7858 -13.5761,5.5524 -13.5761,6.7277 0,0.4137 1.1194,0.5382 2.4876,0.2766 3.7276,-0.7125 4.0376,1.6663 1.5023,11.5278 -3.3724,13.1174 -3.8771,16.3917 -2.916,18.9196 1.2854,3.3808 3.9282,2.8697 11.5335,-2.2302 6.6953,-4.4896 9.9821,-5.1142 9.0473,-1.7192 -0.2658,0.9652 -1.2485,5.3549 -2.1837,9.7549 -3.079,14.4866 -4.783,16.0386 -16.712,15.221 -7.6578,-0.5249 -7.9166,-0.4692 -9.0147,1.9409 -0.9008,1.9769 -0.8372,2.6812 0.3126,3.4644 1.941,1.3223 13.1946,0.3121 16.6964,-1.4987 z m -78.2533,-24.8837 c 7.3355,-3.617 10.6482,-6.8361 13.6617,-13.2756 2.9356,-6.2734 5.0208,-15.5755 4.1327,-18.436 -2.1281,-6.8543 -5.7908,-8.6784 -13.0415,-6.4949 -7.0969,2.1372 -14.2224,8.0419 -17.487,14.4911 -5.8903,11.6362 -5.652,22.834 0.5422,25.4808 3.5711,1.5259 6.3258,1.127 12.1919,-1.7654 z m -7.5,-3.7439 c -1.542,-1.5419 -2,-3.3333 -2,-7.8218 0,-7.762 2.4388,-14.504 6.9693,-19.2666 4.2351,-4.452 7.8618,-5.0805 11.0307,-1.9116 4.3135,4.3135 1.6447,19.5503 -4.7285,26.9959 -3.9333,4.5953 -7.9637,5.3119 -11.2715,2.0041 z m 207.5,3.7439 c 7.3355,-3.617 10.6482,-6.8361 13.6617,-13.2756 2.9356,-6.2734 5.0208,-15.5755 4.1327,-18.436 -2.1281,-6.8543 -5.7908,-8.6784 -13.0415,-6.4949 -7.0969,2.1372 -14.2224,8.0419 -17.487,14.4911 -5.8903,11.6362 -5.652,22.834 0.5422,25.4808 3.5711,1.5259 6.3258,1.127 12.1919,-1.7654 z m -7.5,-3.7439 c -1.542,-1.5419 -2,-3.3333 -2,-7.8218 0,-7.762 2.4388,-14.504 6.9693,-19.2666 4.2351,-4.452 7.8618,-5.0805 11.0307,-1.9116 4.3135,4.3135 1.6447,19.5503 -4.7285,26.9959 -3.9333,4.5953 -7.9637,5.3119 -11.2715,2.0041 z m -298.8117,1.4468 c 7.315,-4.732 8.6525,-6.7691 2.5264,-3.8478 -4.1979,2.0018 -6.7072,1.3246 -6.7347,-1.8176 -0.011,-1.2548 1.4306,-8.2273 3.2035,-15.4946 1.7729,-7.2672 2.9115,-13.5252 2.5302,-13.9065 -0.918,-0.918 -7.615,2.1497 -11.2889,5.1712 l -2.9248,2.4054 3.1061,-0.5747 c 2.222,-0.4111 3.2687,-0.1507 3.6776,0.9146 0.3143,0.8191 -0.9358,7.3608 -2.778,14.537 -1.8422,7.1763 -3.1071,13.9744 -2.8109,15.107 0.8241,3.1516 3.7467,2.5174 11.4935,-2.494 z m 38.1274,3.4109 c 4.3338,-2.2665 12.7578,-8.1175 12.319,-8.5564 -0.2469,-0.2468 -1.8813,0.292 -3.632,1.1973 -7.0402,3.6406 -7.5567,-0.094 -2.5836,-18.6759 1.8661,-6.9726 3.1352,-12.9351 2.8202,-13.25 -1.407,-1.407 -4.5154,-0.2249 -11.6419,4.4273 -4.2126,2.75 -8.1108,5 -8.6628,5 -0.626,0 -0.754,-1.881 -0.3402,-5 0.4659,-3.5121 0.3174,-5 -0.4988,-5 -1.4189,0 -9.8438,4.2638 -12.5956,6.3746 -1.8814,1.4431 -1.7776,1.4994 1.75,0.9489 3.6021,-0.5621 3.7497,-0.4716 3.7425,2.2957 -0.01,2.3384 -3.3234,16.4912 -6.5936,28.1308 -0.5011,1.7835 -0.2255,2.25 1.3295,2.25 3.2617,0 4.9128,-3.0227 7.3739,-13.5 2.5954,-11.0488 4.1079,-13.2116 12.2666,-17.5398 7.0728,-3.7521 7.3388,-2.6306 3.3504,14.1296 -4.1309,17.3596 -3.9129,19.6492 1.5964,16.7679 z m 191.4086,-2.7579 c 5.4887,-3.5475 8.3338,-6.0998 6.7995,-6.0998 -0.3268,0 -1.6742,0.7077 -2.9944,1.5727 -1.32,0.8649 -3.6667,1.4274 -5.2148,1.25 -4.3481,-0.4985 -4.3894,-4.2164 -0.2229,-20.0727 0.8932,-3.3992 1.3015,-3.75 4.3651,-3.75 1.8588,0 4.0888,-0.2721 4.9557,-0.6048 2.5155,-0.9653 0.7768,-2.3952 -2.9125,-2.3952 -1.8601,0 -3.6114,-0.3712 -3.8918,-0.8249 -0.2804,-0.4537 0.1608,-3.3929 0.9805,-6.5316 1.7447,-6.6814 1.3053,-8.0079 -2.1336,-6.4411 -1.6672,0.7597 -2.8292,2.4587 -3.5648,5.2123 -1.9471,7.2895 -2.5958,8.2764 -5.8703,8.9313 -3.3243,0.6649 -3.2951,2.654 0.039,2.654 2.2526,0 2.5053,2.4276 0.8668,8.3281 -2.835,10.2095 -3.761,16.8464 -2.7536,19.736 1.4082,4.0397 4.166,3.8095 11.552,-0.9643 z m 47.0283,-0.7827 c 7.5166,-4.8788 8.8793,-6.7939 2.7721,-3.8958 -1.9508,0.9257 -3.9919,1.408 -4.5358,1.0719 -1.6694,-1.0318 -1.1187,-6.0959 2.0111,-18.4932 1.65,-6.5356 3,-12.5843 3,-13.4415 0,-2.6985 -3.4121,-1.72 -12,3.4415 -4.5756,2.75 -8.6974,5 -9.1596,5 -1.398,0 -0.9662,-2.9705 2.1805,-15 3.823,-14.6152 5.042,-16.3455 11.9772,-17 5.6227,-0.5306 8.5488,-2.8531 6.3566,-5.0453 -3.1907,-3.1907 -18.3133,6.2237 -21.8001,13.5714 -1.6255,3.4257 -12.5546,48.6521 -12.5546,51.9533 0,1.9241 2.4101,1.9677 4.2999,0.078 0.7935,-0.7935 2.6851,-6.4504 4.2035,-12.5708 3.0052,-12.1136 3.4306,-12.6493 14.0792,-17.7272 4.7482,-2.2643 5.6145,-0.7448 3.7678,6.6093 -4.8449,19.2945 -5.6206,26.1315 -2.9649,26.1315 0.6337,0 4.3989,-2.1074 8.3671,-4.683 z m 79.5631,3.5406 c 4.3338,-2.2665 12.7578,-8.1175 12.319,-8.5564 -0.2469,-0.2468 -1.8813,0.292 -3.632,1.1973 -7.0402,3.6406 -7.5567,-0.094 -2.5836,-18.6759 1.8661,-6.9726 3.1352,-12.9351 2.8202,-13.25 -1.407,-1.407 -4.5154,-0.2249 -11.6419,4.4273 -4.2126,2.75 -8.1108,5 -8.6628,5 -0.626,0 -0.754,-1.881 -0.3402,-5 0.4659,-3.5121 0.3175,-5 -0.4988,-5 -1.4189,0 -9.8438,4.2638 -12.5956,6.3746 -1.8814,1.4431 -1.7776,1.4994 1.75,0.9489 3.6021,-0.5621 3.7497,-0.4716 3.7425,2.2957 -0.01,2.3384 -3.3234,16.4912 -6.5936,28.1308 -0.5011,1.7835 -0.2254,2.25 1.3295,2.25 3.2617,0 4.9128,-3.0227 7.3739,-13.5 2.5954,-11.0488 4.1079,-13.2116 12.2666,-17.5398 7.0728,-3.7521 7.3388,-2.6306 3.3504,14.1296 -4.1309,17.3596 -3.9129,19.6492 1.5964,16.7679 z m -350.812,-51.8618 c 1.4986,-1.6559 1.6161,-2.4376 0.6764,-4.5 -1.3547,-2.9731 -1.92,-3.0355 -5.1329,-0.5664 -2.1754,1.6719 -2.3192,2.1781 -1.2714,4.4778 1.4164,3.1086 3.2745,3.2996 5.7279,0.5886 z m 214.2778,-18.5064 c 15.7787,-3.7201 26.0266,-13.6162 30.388,-29.345 2.2183,-7.9997 2.6817,-35.8932 0.6305,-37.9445 -0.8921,-0.8921 -11.1556,-1.2 -40,-1.2 l -38.8,0 0,-5 0,-5 61.25,-0.017 c 66.7093,-0.019 69.9541,-0.2475 79.834,-5.6248 9.1936,-5.0038 14.9501,-13.3105 17.4731,-25.2139 2.0894,-9.85776 2.0348,-89.0082 -0.068,-97.92541 -3.8274,-16.23362 -13.4783,-25.88148 -29.7204,-29.71088 -7.956,-1.8758 -35.7732,-2.10358 -37.5691,-0.30764 -0.8557,0.85569 -1.2,7.11241 -1.2,21.80583 0,24.09279 -0.9407,28.25249 -9.1717,40.55885 -3.8877,5.81272 -6.4827,8.39716 -12.4157,12.3654 -13.474,9.01192 -13.8746,9.06769 -65.268,9.0847 -48.6456,0.0161 -52.5822,0.37719 -62.4063,5.72418 -5.4902,2.98811 -12.882,10.66219 -15.8232,16.42732 -4.3956,8.61618 -4.8856,14.16542 -4.8856,55.33375 0,49.3238 0.7859,53.4459 12.4053,65.0652 5.9826,5.9826 11.1638,8.8988 19.3253,10.8769 8.6237,2.0902 87.1924,2.1289 96.0214,0.047 z m -10.5406,-20.4841 c -13.0079,-7.931 -7.4467,-27.9979 7.7591,-27.9979 8.5322,0 14.9925,6.4603 14.9925,14.9925 0,8.5322 -6.4603,14.9925 -14.9925,14.9925 -2.7302,0 -5.7818,-0.7815 -7.7591,-1.9871 z m -128.4409,-59.2054 c 0.856,-0.856 1.2,-7.1321 1.2,-21.8947 0,-24.56802 1.0636,-29.41031 8.9156,-40.59114 5.5344,-7.88073 11.5527,-12.74802 21.7118,-17.55931 l 6.8726,-3.25484 50,-0.5531 c 31.1324,-0.34439 51.1355,-0.95236 53.0092,-1.61114 14.8969,-5.23773 25.2926,-16.64804 28.3664,-31.13498 0.7249,-3.41642 1.1192,-19.22717 1.1096,-44.5 -0.019,-49.55229 -0.7971,-53.64317 -12.42,-65.266 -6.1119,-6.11194 -11.1337,-8.88489 -19.7837,-10.92426 -9.1621,-2.1601 -86.4009,-2.1601 -95.563,0 -15.7787,3.72008 -26.0266,13.61616 -30.388,29.345 -2.2183,7.99966 -2.6817,35.89324 -0.6305,37.94448 0.8921,0.8921 11.1556,1.2 40,1.2 l 38.8,0 0,5 0,5 -61.25,0.0174 c -66.7093,0.0189 -69.954,0.24753 -79.8339,5.62485 -9.1937,5.00381 -14.9502,13.31043 -17.4731,25.21381 -2.0895,9.85781 -2.0349,89.00825 0.067,97.92543 3.7763,16.017 13.4592,25.8328 29.2622,29.6636 7.462,1.8088 36.3042,2.0781 38.0273,0.355 z m 38.4409,-190.79459 c -13.0079,-7.93097 -7.4467,-27.99792 7.7591,-27.99792 8.5322,0 14.9925,6.46036 14.9925,14.99252 0,8.53216 -6.4603,14.99252 -14.9925,14.99252 -2.7302,0 -5.7818,-0.78151 -7.7591,-1.98712 z"
         id="path2967" />
      <path
         style="fill:#6ea2c7"
         d="m 1043.0235,1233.0767 c -4.5533,-2.0685 -9.9673,-7.7871 -12.3665,-13.0623 -1.4848,-3.2647 -1.6249,-23.4415 -1.6249,-234.07269 0,-220.60212 0.078,-230.70277 1.8221,-235.22212 2.5574,-6.62797 10.1389,-13.2821 16.7481,-14.69952 7.1361,-1.53041 450.7855,-1.51712 457.9236,0.0137 6.6337,1.42268 12.7538,6.17647 15.9516,12.39046 l 2.5546,4.96407 0,232.0267 0,232.0267 -2.1624,4 c -2.7925,5.1657 -7.8644,9.9927 -12.5555,11.9493 -3.3226,1.3858 -28.0956,1.5484 -233,1.5288 -219.6118,-0.021 -229.4512,-0.099 -233.2907,-1.8431 z m 463.1935,-6.1986 c 1.5483,-0.585 4.0632,-2.2543 5.5886,-3.7096 6.0723,-5.7931 5.7287,8.5247 5.7026,-237.65829 -0.014,-131.5271 -0.4019,-226.69879 -0.9336,-228.99111 -1.1054,-4.76614 -3.6365,-8.33564 -8.0323,-11.32739 l -3.306,-2.25 -228.7042,0 -228.7042,0 -3.3827,2.27957 c -1.8604,1.25376 -4.3946,4.06626 -5.6314,6.25 l -2.2488,3.97043 -0.016,229.59272 -0.017,229.59267 2.2938,4.4073 c 1.6298,3.1316 3.5726,5.0586 6.7118,6.6573 l 4.4182,2.25 226.723,0 c 157.7582,0 227.5793,-0.3235 229.5381,-1.0636 z m -457.9098,-8.4916 c -1.4986,-0.8153 -3.1861,-2.3443 -3.75,-3.3978 -0.6916,-1.2923 -1.0251,-76.1453 -1.0251,-230.05817 l 0,-228.14267 2.9231,-2.92307 2.9231,-2.92308 226.5298,0 c 163.9121,0 227.2036,0.30695 228.9671,1.11046 5.4742,2.49423 5.1569,-11.90604 5.1569,234.01824 l 0,227.82589 -2.7727,2.7727 -2.7727,2.7727 -226.7273,0.2136 c -198.7174,0.1872 -227.0639,0.03 -229.4522,-1.2688 z m 106.2791,-10.2671 c 8.184,-5.1953 13.315,-14.1338 18.0203,-31.392 1.6923,-6.2071 3.7233,-13.6238 4.5134,-16.4814 l 1.4364,-5.1957 4.6597,-0.3043 c 5.9531,-0.3888 7.2093,-2.8043 1.4584,-2.8043 -2.2134,0 -4.2889,-0.4281 -4.6123,-0.9513 -0.6108,-0.9883 3.6135,-17.0633 5.9594,-22.6778 1.673,-4.0041 4.4081,-5.517 9.4373,-5.2202 4.0449,0.2386 7.0732,-1.3768 7.0732,-3.7731 0,-1.831 -5.0645,-1.7953 -9.522,0.067 -4.6812,1.9559 -10.8535,7.0416 -13.8796,11.4363 -1.3706,1.9904 -3.5884,7.4439 -4.9284,12.1189 l -2.4363,8.5 -4.7893,0.5 c -6.0705,0.6338 -7.322,3 -1.5867,3 2.2133,0 4.2907,0.4312 4.6164,0.9581 0.9512,1.5392 -7.1403,35.6331 -9.8739,41.6041 -2.732,5.9675 -5.0311,7.4378 -11.6301,7.4378 -3.773,0 -5.9701,1.8159 -5.9701,4.9343 0,2.1965 7.5632,1.0944 12.0542,-1.7566 z m 89.2009,1.3223 c 0.1347,-0.55 -1.4426,-1.1396 -3.5051,-1.3104 -4.2291,-0.35 -4.4858,-1.2301 -2.6804,-9.1896 2.8056,-12.369 2.3466,-11.7039 8.4251,-12.208 4.6067,-0.382 6.3906,-1.1617 11.1506,-4.8734 3.1167,-2.4302 6.4949,-5.5436 7.5072,-6.9186 2.7003,-3.6678 5.9897,-13.6941 6.5615,-20 0.4178,-4.6071 0.145,-5.9464 -1.6802,-8.25 -3.0451,-3.8431 -5.8408,-3.4802 -13.4803,1.75 -3.6151,2.475 -6.8287,4.5 -7.1414,4.5 -0.3127,0 -0.4208,-1.6762 -0.2403,-3.725 0.4534,-5.1459 -1.5233,-5.2741 -9.6095,-0.6233 -6.6996,3.8533 -9.2224,7.3102 -3.842,5.2646 2.1689,-0.8247 2.9551,-0.7131 3.8789,0.5503 1.3954,1.9083 0.3889,7.8071 -5.7779,33.8607 -3.9544,16.7066 -4.3979,17.9195 -7.0532,19.2926 -1.5584,0.8059 -2.5574,1.912 -2.22,2.4579 0.8014,1.2967 19.3813,0.7519 19.707,-0.5778 z m 0.9949,-28.5311 c -2.7134,-1.0907 -2.7353,-2.0844 -0.2858,-12.9689 1.615,-7.176 2.4172,-8.9236 5.1499,-11.2193 4.1684,-3.5019 9.6394,-6.0893 11.4261,-5.4036 3.7095,1.4234 2.649,12.6282 -2.1175,22.3704 -3.5081,7.1703 -8.267,9.5951 -14.1727,7.2213 z m 42.25,28.1654 c 4.2183,-1.9211 10.4042,-8.1037 12.8315,-12.8245 0.7946,-1.5454 2.867,-9.1098 4.6054,-16.8098 1.7383,-7.7 4.271,-18.2302 5.6282,-23.4004 1.3571,-5.1702 2.2295,-9.6383 1.9386,-9.9292 -0.2908,-0.2908 -2.039,0.1913 -3.8849,1.0716 -3.137,1.4959 -3.5039,2.2092 -5.6219,10.9292 -3.3517,13.7994 -3.9826,14.9589 -9.8886,18.1733 -4.1722,2.2709 -5.4825,2.5898 -6.652,1.6193 -1.9895,-1.6512 -1.8895,-2.7399 1.5437,-16.7994 3.4718,-14.2174 3.5577,-15.1644 1.3769,-15.1644 -2.4628,0 -13.3769,6.2874 -13.3769,7.7061 0,0.935 0.6632,0.9923 2.667,0.2304 2.7241,-1.0357 4.7561,0.2775 3.9667,2.5635 -2.1624,6.2621 -5.8133,24.6484 -5.3002,26.6925 1.253,4.9924 3.1475,4.5329 17.1769,-4.1659 1.3069,-0.8103 2.7161,-1.1334 3.1316,-0.7179 1.0269,1.0268 -3.2248,19.4057 -5.1793,22.3886 -2.3072,3.5212 -6.0356,4.5689 -13.6538,3.8365 -6.3726,-0.6127 -6.7693,-0.5238 -8.3362,1.8675 -0.9048,1.3809 -1.3547,2.9806 -0.9999,3.5547 1.0915,1.766 13.5971,1.196 18.0272,-0.8217 z m -183.2477,-27.8714 c 7.1356,-4.6991 8.3369,-7.6244 1.7511,-4.2646 -3.9873,2.0342 -7.0034,1.8065 -7.0034,-0.5287 0,-1.15 5.5284,-25.1469 6.4645,-28.0603 0.1928,-0.5998 -0.012,-1.6769 -0.4546,-2.3933 -0.6193,-1.002 -2.319,-0.456 -7.3635,2.365 -6.3328,3.5415 -8.3555,5.2433 -7.3852,6.2135 0.2538,0.2538 1.6649,0 3.1358,-0.5553 4.1069,-1.5615 4.2107,0.5227 0.7202,14.4611 -3.4621,13.8246 -3.6544,15.5625 -1.9142,17.3027 1.629,1.629 4.0881,0.7025 12.0493,-4.5401 z m 45.4921,-1.0566 c 6.2691,-4.1623 7.4527,-7.5305 1.4279,-4.063 -4.1417,2.3836 -7.1743,2.019 -7.1691,-0.8619 0,-0.9798 1.5968,-7.817 3.5446,-15.1938 1.9479,-7.3768 3.3106,-14.0143 3.0283,-14.75 -0.8493,-2.2131 -2.7853,-1.5729 -11.0761,3.6624 -4.355,2.75 -8.3352,5 -8.845,5 -0.5209,0 -0.6611,-1.9387 -0.3201,-4.4264 0.4176,-3.0468 0.2262,-4.5679 -0.6141,-4.8805 -1.6966,-0.6312 -14.7208,6.4403 -14.7208,7.9926 0,0.9566 0.649,1.0181 2.6628,0.2524 4.915,-1.8687 5.0078,-0.076 0.8567,16.5481 -2.1283,8.5233 -3.5999,15.7667 -3.2703,16.0963 0.3296,0.3296 1.8708,-0.01 3.425,-0.7443 2.5218,-1.199 3.1079,-2.4729 5.4477,-11.8409 1.4421,-5.7735 2.9258,-11.2146 3.2972,-12.0913 0.8204,-1.937 12.5622,-9.0356 13.7408,-8.3071 1.3905,0.8593 0.9833,3.9508 -2.1599,16.4011 -3.3181,13.143 -3.531,15.069 -1.8512,16.7488 1.3207,1.3207 4.1026,0.097 12.5956,-5.5425 z m 58.821,4.4155 c 9.7955,-4.5613 15.1276,-11.0872 18.0753,-22.1218 2.2206,-8.3132 1.8013,-12.2119 -1.689,-15.7021 -2.6325,-2.6325 -3.5779,-2.9772 -6.9315,-2.5274 -2.1358,0.2865 -5.9661,1.561 -8.5117,2.8324 -10.7945,5.391 -16.8502,15.2978 -16.9498,27.7289 -0.055,6.8268 0.1346,7.4984 2.7471,9.75 3.5163,3.0306 6.8158,3.0405 13.2596,0.04 z m -6.1604,-4.7296 c -1.4721,-1.6288 -1.9038,-3.6172 -1.8995,-8.75 0.011,-13.9228 10.876,-26.903 16.9243,-20.2198 2.8196,3.1157 3.0603,9.1053 0.6808,16.9393 -3.5657,11.7395 -10.8948,17.3535 -15.7056,12.0305 z m 129.1538,3.5374 c 10.728,-6.4471 13.6949,-10.7638 4.4088,-6.4144 -4.6338,2.1704 -5.1533,2.2277 -6.6468,0.7342 -1.4935,-1.4936 -1.4834,-2.309 0.1294,-10.4348 2.3237,-11.7073 2.6105,-12.1434 8.2276,-12.51 6.4238,-0.4193 7.0819,-2.8046 0.7739,-2.8046 l -4.715,0 0.5781,-3.75 c 0.318,-2.0625 0.8862,-5.4375 1.2625,-7.5 0.5683,-3.1141 0.4001,-3.75 -0.9919,-3.75 -2.2699,0 -6.5854,4.4597 -6.5854,6.8053 0,1.043 -0.485,3.2875 -1.0778,4.9879 -0.848,2.4328 -1.7374,3.1572 -4.1729,3.3992 -3.8111,0.3787 -5.015,2.8076 -1.3916,2.8076 1.3883,0 2.7783,0.4111 3.0888,0.9135 0.3105,0.5024 -0.5623,5.5649 -1.9397,11.25 -2.9227,12.0638 -3.0596,14.6022 -0.9501,17.614 2.0763,2.9644 3.0434,2.834 10.0021,-1.3479 z m 77.0066,1.1922 c 9.7955,-4.5613 15.1276,-11.0872 18.0753,-22.1218 2.2206,-8.3132 1.8013,-12.2119 -1.689,-15.7021 -2.6325,-2.6325 -3.5779,-2.9772 -6.9315,-2.5274 -2.1358,0.2865 -5.9661,1.561 -8.5117,2.8324 -10.7945,5.391 -16.8502,15.2978 -16.9498,27.7289 -0.055,6.8268 0.1346,7.4984 2.7471,9.75 3.5163,3.0306 6.8158,3.0405 13.2596,0.04 z m -6.1604,-4.7296 c -1.4721,-1.6288 -1.9038,-3.6172 -1.8995,-8.75 0.011,-13.9228 10.876,-26.903 16.9243,-20.2198 2.8196,3.1157 3.0603,9.1053 0.6808,16.9393 -3.5657,11.7395 -10.8948,17.3535 -15.7056,12.0305 z m 65.3394,0.3141 c 6.2691,-4.1623 7.4527,-7.5305 1.4279,-4.063 -4.1417,2.3836 -7.1743,2.019 -7.1691,-0.8619 0,-0.9798 1.5968,-7.817 3.5446,-15.1938 1.9479,-7.3768 3.3106,-14.0143 3.0283,-14.75 -0.8493,-2.2131 -2.7853,-1.5729 -11.0761,3.6624 -4.355,2.75 -8.3352,5 -8.845,5 -0.5209,0 -0.6611,-1.9387 -0.3201,-4.4264 0.4176,-3.0468 0.2262,-4.5679 -0.6141,-4.8805 -1.6966,-0.6312 -14.7208,6.4403 -14.7208,7.9926 0,0.9566 0.649,1.0181 2.6628,0.2524 4.915,-1.8687 5.0078,-0.076 0.8567,16.5481 -2.1283,8.5233 -3.5999,15.7667 -3.2703,16.0963 0.3296,0.3296 1.8708,-0.01 3.425,-0.7443 2.5218,-1.199 3.1079,-2.4729 5.4477,-11.8409 1.4421,-5.7735 2.9258,-11.2146 3.2972,-12.0913 0.8204,-1.937 12.5622,-9.0356 13.7408,-8.3071 1.3904,0.8593 0.9833,3.9508 -2.1599,16.4011 -3.3181,13.143 -3.531,15.069 -1.8512,16.7488 1.3207,1.3207 4.1026,0.097 12.5956,-5.5425 z m -115.1003,3.6039 c 0.6292,-0.4836 2.3733,-5.834 3.8756,-11.8897 2.9811,-12.0164 3.7661,-13.073 13.25,-17.8367 3.6546,-1.8356 4.3529,-1.9278 4.8471,-0.64 0.3176,0.8276 -0.845,7.3859 -2.5835,14.5742 -1.7385,7.1883 -3.0197,14.0578 -2.8471,15.2656 0.5214,3.6488 3.5521,3.1286 11.3574,-1.9494 8.3696,-5.4451 10.2196,-8.6507 2.9559,-5.1217 -7.3339,3.5631 -7.5829,2.3587 -3.1837,-15.3967 2.5981,-10.4859 3.4329,-15.4671 2.713,-16.187 -1.0581,-1.058 -5.9763,1.103 -16.1985,7.1176 -2.5683,1.5112 -4.9151,2.5021 -5.2152,2.2021 -0.3001,-0.3001 0.9305,-6.2561 2.7345,-13.2355 3.9469,-15.2698 5.7989,-17.901 12.3609,-17.5613 3.252,0.1683 4.651,-0.2482 5.7587,-1.7147 1.8705,-2.4764 1.4455,-3.853 -1.3149,-4.2588 -6,-0.8821 -18.115,7.8696 -21.4655,15.5064 -2.0757,4.7311 -12.8551,51.2374 -12.143,52.3895 0.5434,0.8793 3.1508,0.2329 5.0983,-1.2639 z m -242.4671,-52.2511 c 1.0378,-1.4424 -2.0571,-6.7408 -3.4696,-5.9397 -4.8187,2.733 -5.8062,5.509 -3.0451,8.56 1.5885,1.7552 1.755,1.7587 3.75,0.079 1.1482,-0.967 2.3923,-2.1815 2.7647,-2.699 z m 214.3629,-17.1014 c 15.1365,-3.917 26.1476,-15.3225 29.4045,-30.4577 0.7239,-3.3639 1.0616,-11.714 0.8696,-21.5 l -0.314,-16 -39.5,-0.5 -39.5,-0.5 0,-4.5 0,-4.5 65,-0.5 c 63.0912,-0.4853 65.1496,-0.5615 70.0941,-2.5947 11.1606,-4.5892 17.2379,-10.618 21.7011,-21.5277 2.14,-5.231 2.2087,-6.6448 2.5205,-51.87759 0.2237,-32.43997 -0.031,-48.30412 -0.8405,-52.46667 -2.3059,-11.8495 -8.8698,-21.07621 -18.7069,-26.29586 -8.1553,-4.32728 -15.2822,-5.39115 -33.7683,-5.04075 l -16,0.30328 -0.5329,22.5 c -0.4822,20.36122 -0.7499,23.0452 -2.8164,28.23554 -6.543,16.43379 -19.3685,27.98146 -35.844,32.27279 -4.6619,1.21428 -14.017,1.49167 -50.3067,1.49167 -49.3125,0 -51.7232,0.24507 -61.896,6.29234 -6.3964,3.80239 -13.2561,12.06338 -16.3647,19.70766 -2.1779,5.35573 -2.2445,6.63532 -2.5373,48.78299 -0.2567,36.9422 -0.068,44.1902 1.2857,49.4754 3.7108,14.4848 14.3206,25.3183 28.5365,29.1385 8.2728,2.2231 90.9647,2.2736 99.5157,0.061 z m -11.3217,-20.0641 c -13.1196,-6.6929 -9.4397,-26.4872 5.2316,-28.1408 11.473,-1.2932 19.9977,10.6798 15.041,21.1253 -3.4686,7.3097 -13.1373,10.6556 -20.2726,7.0155 z m -128.169,-81.8936 c 0.4962,-20.77962 0.7677,-23.55265 2.8124,-28.72476 5.5771,-14.10711 18.0308,-25.66846 33.4681,-31.06982 2.0702,-0.72432 20.5213,-1.29944 53.1703,-1.65733 l 50,-0.54808 6.6796,-3.16452 c 9.2965,-4.40427 15.0875,-10.07375 19.5857,-19.1745 l 3.7347,-7.55613 0,-46.05242 c 0,-41.76053 -0.1677,-46.53292 -1.799,-51.20813 -3.7953,-10.8763 -13.418,-20.63511 -24.701,-25.05029 -4.017,-1.57191 -9.4148,-1.79457 -50.2919,-2.07454 -39.2264,-0.26867 -46.682,-0.0865 -52,1.27071 -15.3378,3.91432 -26.3727,15.26827 -29.6525,30.50982 -0.7239,3.36394 -1.0616,11.71399 -0.8696,21.5 l 0.314,16 39.5,0.5 39.5,0.5 0,4.5 0,4.5 -65,0.5 c -63.0912,0.48532 -65.1496,0.56151 -70.0941,2.59468 -11.1605,4.58922 -17.2379,10.61803 -21.7011,21.52777 -2.14,5.231 -2.2087,6.64475 -2.5205,51.87755 -0.2237,32.43997 0.031,48.30409 0.8405,52.46669 2.2564,11.5954 8.7648,20.9234 18.1717,26.0443 8.3641,4.5532 13.4867,5.3598 32.8035,5.1653 l 17.5,-0.1763 0.5492,-23 z m 38.169,-168.1064 c -13.1196,-6.69294 -9.4397,-26.48715 5.2316,-28.14082 11.473,-1.29318 19.9977,10.67986 15.041,21.12536 -3.4686,7.30965 -13.1373,10.65554 -20.2726,7.01546 z"
         id="path2965" />
      <path
         style="fill:#4f8ebb"
         d="m 1045.4535,1233.579 c -7.1509,-2.5653 -12.8451,-8.6568 -14.8134,-15.8471 -0.8874,-3.2414 -1.1053,-60.6586 -0.8912,-234.8687 l 0.2832,-230.57852 3.0237,-4.89056 c 1.663,-2.6898 4.9642,-6.25447 7.336,-7.92148 l 4.3125,-3.03093 230.1639,-0.27223 c 257.2408,-0.30426 235.0779,-0.93942 242.1975,6.94109 7.6502,8.46785 6.9664,-15.26903 6.9664,241.83114 l 0,230.49999 -2.2988,4.9876 c -2.8089,6.0941 -5.4721,9.0456 -10.7012,11.8597 l -4,2.1527 -229,0.2106 c -184.3103,0.1695 -229.6984,-0.04 -232.5786,-1.0733 z m 462.5925,-7.2109 c 1.8239,-0.8655 4.5919,-3.4145 6.1511,-5.6644 l 2.835,-4.0908 0.2734,-229.58561 c 0.2478,-208.15818 0.1244,-229.97958 -1.3219,-233.80714 -1.9046,-5.04052 -6.1255,-8.8443 -11.3858,-10.26074 -2.6088,-0.70248 -76.5773,-0.95184 -230.2779,-0.7763 l -226.4345,0.2586 -3.6234,2.48282 c -1.9928,1.36556 -4.6598,4.29056 -5.9266,6.5 l -2.3033,4.01718 -0.296,225.5 c -0.1628,124.02499 -0.021,227.83979 0.3156,230.69959 0.7039,5.983 3.5725,10.772 8.4021,14.0266 l 3.3741,2.2738 228.451,0 c 205.7456,0 228.7805,-0.1564 231.7671,-1.5736 z m -461.5896,-10.0069 -2.4243,-2.5805 -0.2564,-227.45672 c -0.2852,-252.96721 -0.8607,-232.25713 6.5122,-234.38718 2.6488,-0.76525 69.6677,-0.9959 229.0808,-0.7884 l 225.3366,0.29331 2.4134,2.80576 2.4134,2.80577 0,227.49389 c 0,243.09567 0.2168,231.94627 -4.5448,233.77337 -0.8903,0.3417 -103.8785,0.6212 -228.8627,0.6212 l -227.2439,0 -2.4243,-2.5805 z m 197.1695,-5.4697 c 2.7385,-1.4656 1.4334,-2.9498 -2.5938,-2.9498 -1.8601,0 -3.6446,-0.4249 -3.9656,-0.9443 -0.6199,-1.003 1.9355,-14.0188 3.4957,-17.8057 0.7596,-1.8437 1.7082,-2.25 5.2527,-2.25 8.1124,0 19.0459,-8.9855 22.74,-18.6884 3.023,-7.9402 3.7868,-18.4271 1.5866,-21.785 -2.8083,-4.286 -8.0551,-3.4141 -15.7533,2.6181 -4.8165,3.7741 -5.8589,3.6476 -5.1653,-0.627 0.8788,-5.4149 -1.5533,-5.5107 -9.9127,-0.3905 -8.6252,5.2829 -9.9225,7.4109 -3.8974,6.393 3.9496,-0.6673 4.1193,-0.5887 4.1193,1.9089 0,3.7966 -4.8223,25.6789 -10.1076,45.8654 -0.6487,2.4777 -1.8434,4.1817 -3.4429,4.9105 -3.2622,1.4863 -3.1092,3.5622 0.3005,4.0788 5.7062,0.8644 15.4554,0.6767 17.3438,-0.334 z m 0.071,-31.2512 c -0.7795,-0.9392 -0.6792,-3.0963 0.3602,-7.75 2.8061,-12.5627 3.1495,-13.2602 8.2218,-16.6986 8.9825,-6.0889 12.1675,-3.4592 9.758,8.0568 -2.5562,12.217 -6.5974,17.6932 -13.0568,17.6932 -2.3117,0 -4.6892,-0.5856 -5.2833,-1.3014 z m -90.3652,29.8816 c 4.7044,-2.4735 10.9879,-9.8554 14.1131,-16.5802 1.6614,-3.575 4.8274,-13.2042 7.0356,-21.3983 2.2082,-8.1941 4.2671,-15.1505 4.5753,-15.4587 0.3082,-0.3082 2.643,-0.804 5.1884,-1.1017 6.0187,-0.704 7.0484,-3.0413 1.3399,-3.0413 -2.8457,0 -4.3037,-0.4924 -4.7274,-1.5966 -0.9237,-2.4071 4.6767,-21.2933 7.1757,-24.1986 1.8152,-2.1103 2.9736,-2.5111 6.8349,-2.3651 3.5086,0.1327 5.1508,-0.3257 6.6935,-1.8684 2.7511,-2.751 1.7089,-3.9713 -3.3919,-3.9713 -8.8173,0 -19.848,10.2146 -23.489,21.7511 -1.1812,3.7429 -2.1478,7.5536 -2.1478,8.4681 0,2.2329 -1.6491,3.1277 -6.92,3.7549 -5.714,0.6799 -6.7709,3.0259 -1.3633,3.0259 2.1358,0 4.3498,0.4664 4.9198,1.0365 0.7154,0.7153 -0.1494,6.2154 -2.7909,17.75 -6.08,26.5494 -8.0803,30.3626 -16.0439,30.5852 -4.699,0.1313 -8.8017,2.594 -8.8017,5.2833 0,1.839 8.2594,1.7867 11.7997,-0.075 z m 136.1676,-1.4468 c 5.838,-3.9208 10.787,-10.4612 12.5233,-16.55 0.7973,-2.7959 2.8063,-11.1584 4.4644,-18.5834 1.6582,-7.425 3.6913,-15.975 4.5181,-19 1.9549,-7.1526 1.9107,-8 -0.4173,-8 -3.6945,0 -6.7537,4.1395 -8.4989,11.5 -3.4763,14.6609 -3.3627,14.4209 -8.3063,17.5561 -2.5532,1.6191 -5.454,2.9439 -6.4463,2.9439 -2.6677,0 -2.3443,-4.9779 1.2479,-19.2064 2.0275,-8.031 2.7175,-12.4239 2.0556,-13.0859 -1.2013,-1.2013 -5.1243,0.2827 -11.5948,4.3863 -5.4842,3.4779 -5.8993,5.2567 -1.013,4.34 3.1993,-0.6002 3.499,-0.4537 3.4876,1.7047 -0.01,1.2987 -1.1318,6.4082 -2.5,11.3543 -3.6738,13.2812 -3.1795,19.507 1.5487,19.507 0.9,0 4.7475,-2.0021 8.55,-4.449 3.8025,-2.447 7.2118,-4.1345 7.5762,-3.75 0.8799,0.9284 -2.811,17.6186 -4.7071,21.2853 -0.8924,1.7256 -2.5895,3.125 -4.2236,3.4828 -1.5025,0.3288 -3.2986,0.7729 -3.9914,0.9867 -0.6928,0.2139 -3.6178,-0.062 -6.5,-0.6134 -4.7979,-0.9176 -5.3882,-0.8215 -6.9904,1.1385 -0.9625,1.1774 -1.75,2.9908 -1.75,4.0299 0,1.7014 0.8299,1.8892 8.3495,1.8892 7.5316,0 8.7677,-0.2808 12.6178,-2.8665 z m -188.9085,-24.439 c 9.2438,-5.6159 9.9412,-6.1375 9.9412,-7.4349 0,-1.6363 -1.8746,-1.5461 -5,0.2405 -6.953,3.9747 -7.3523,1.6512 -2.8879,-16.8079 3.7557,-15.5288 3.3988,-16.5353 -4.3995,-12.4085 -7.0611,3.7366 -10.1351,6.2239 -9.3207,7.5415 0.4923,0.7965 1.3661,0.7866 3.1709,-0.036 4.407,-2.008 4.6422,-0.02 1.4502,12.2562 -5.2892,20.3424 -4.0098,23.3653 7.0458,16.6487 z m 44.8852,-0.5918 c 7.0196,-4.1703 10.83,-7.6619 9.6495,-8.8424 -0.4001,-0.4001 -2.474,0.2776 -4.6086,1.5061 -2.1346,1.2285 -4.3545,2.2337 -4.933,2.2337 -1.8131,0 -1.1479,-6.0862 1.9545,-17.8843 1.6465,-6.2614 2.9936,-12.4489 2.9936,-13.75 0,-3.7365 -3.5446,-2.9775 -12.3035,2.6344 -4.292,2.75 -8.032,4.9999 -8.3113,4.9999 -0.2793,0 -0.2049,-2.0198 0.1653,-4.4885 0.9479,-6.3204 -0.9224,-6.6996 -9.2454,-1.8745 -7.8653,4.5597 -9.4726,6.9922 -3.9336,5.9531 3.4688,-0.6507 3.6284,-0.5577 3.6253,2.1146 0,1.5374 -1.5767,8.7547 -3.5,16.0384 -1.9232,7.2837 -3.4968,13.4712 -3.4968,13.75 0,0.877 2.8061,0.5524 5.3859,-0.623 2.1394,-0.9748 2.8668,-2.7165 5.297,-12.6832 l 2.8171,-11.5532 5.905,-3.8169 c 5.9614,-3.8532 8.595,-4.6984 8.595,-2.7583 0,0.5822 -1.35,6.4059 -3,12.9415 -3.7586,14.8879 -3.9226,20 -0.6415,20 0.5638,0 3.9773,-1.7538 7.5855,-3.8974 z m 64.0523,1.3993 c 2.7114,-1.374 6.4546,-3.8369 8.3181,-5.4731 4.8978,-4.3003 8.9147,-13.9179 9.4778,-22.6926 0.4289,-6.6833 0.2838,-7.3511 -2.1204,-9.7553 -3.4157,-3.4157 -9.0323,-3.4454 -15.6681,-0.083 -11.5386,5.847 -17.0363,14.3516 -17.7995,27.5347 -0.4257,7.3549 -0.3018,7.9605 2.1264,10.3886 3.4132,3.4132 9.0318,3.4421 15.6657,0.08 z m -6.7646,-4.3375 c -3.5073,-2.2262 -3.2429,-14.2605 0.4756,-21.6442 5.8044,-11.5255 15.5235,-11.3185 15.5235,0.3306 0,13.4722 -9.1496,25.6611 -15.9991,21.3136 z m 131.0202,1.934 c 4.1296,-2.6958 7.7947,-5.3647 8.1446,-5.9309 1.3797,-2.2324 -1.5701,-2.1239 -5.9728,0.2199 -5.6543,3.01 -7.4237,2.5221 -7.4237,-2.047 0,-4.8578 2.8926,-17.0063 4.3341,-18.2027 0.6628,-0.5501 3.1863,-1.1436 5.6078,-1.3189 5.6326,-0.4078 6.8132,-2.8124 1.3914,-2.8341 -6.2654,-0.025 -6.7096,-0.744 -4.8628,-7.8707 0.8816,-3.4024 1.3515,-6.593 1.0441,-7.0903 -0.9163,-1.4827 -6.5908,1.0333 -7.5589,3.3515 -0.4881,1.1686 -1.3689,4.0328 -1.9574,6.3648 -0.8613,3.4128 -1.5994,4.3557 -3.7841,4.8335 -4.4817,0.9801 -5.2142,1.3166 -5.2142,2.3951 0,0.5673 1.1391,1.0314 2.5314,1.0314 1.3923,0 2.7838,0.6578 3.0923,1.4617 0.3085,0.804 -0.3806,5.4722 -1.5314,10.3738 -3.2705,13.9305 -2.5549,20.1645 2.3146,20.1645 1.2851,0 5.7153,-2.2057 9.845,-4.9016 z m 45.2827,0.4125 c 3.9613,-2.469 7.7757,-5.1798 8.4764,-6.0241 2.1956,-2.6455 0.1263,-2.952 -4.5597,-0.6754 -2.4776,1.2037 -4.7178,2.1886 -4.978,2.1886 -1.3261,0 -0.1328,-8.5369 2.663,-19.0518 1.7249,-6.4875 2.8641,-12.5049 2.5314,-13.3718 -1.0038,-2.6159 -3.9398,-1.822 -12.6721,3.4263 -4.578,2.7514 -8.5782,4.748 -8.8894,4.4368 -0.7936,-0.7935 4.4656,-20.9061 6.6174,-25.3065 1.6466,-3.3675 2.1413,-3.656 6.7692,-3.9477 5.3278,-0.3358 8.5072,-2.3316 8.5072,-5.3403 0,-1.4908 -0.7805,-1.845 -4.0657,-1.845 -2.2362,0 -5.0487,0.5158 -6.25,1.1463 -4.5651,2.3956 -11.8563,9.2705 -13.7327,12.9486 -1.8686,3.6627 -12.9516,49.1794 -12.9516,53.1907 0,1.6048 0.4649,1.8164 2.75,1.2521 3.899,-0.963 4.1612,-1.3807 6.3767,-10.1561 1.0944,-4.3349 2.4174,-9.5188 2.94,-11.5197 0.7818,-2.9936 2.0243,-4.2781 7.0134,-7.25 9.5582,-5.6938 9.6895,-5.483 5.882,9.4459 -2.8076,11.008 -3.698,18.873 -2.2954,20.2755 1.2306,1.2307 2.6308,0.6883 9.8679,-3.8224 z m 30.4617,1.991 c 2.7114,-1.374 6.4546,-3.8369 8.3181,-5.4731 4.8978,-4.3003 8.9147,-13.9179 9.4778,-22.6926 0.4289,-6.6833 0.2838,-7.3511 -2.1204,-9.7553 -3.4157,-3.4157 -9.0323,-3.4454 -15.6681,-0.083 -11.5386,5.847 -17.0363,14.3516 -17.7995,27.5347 -0.4257,7.3549 -0.3018,7.9605 2.1264,10.3886 3.4132,3.4132 9.0318,3.4421 15.6657,0.08 z m -6.7646,-4.3375 c -3.5073,-2.2262 -3.2429,-14.2605 0.4756,-21.6442 5.8044,-11.5255 15.5235,-11.3185 15.5235,0.3306 0,13.4722 -9.1496,25.6611 -15.9991,21.3136 z m 60.7123,2.9382 c 7.0196,-4.1703 10.83,-7.6619 9.6495,-8.8424 -0.4001,-0.4002 -2.474,0.2776 -4.6086,1.5061 -2.1346,1.2285 -4.3545,2.2337 -4.933,2.2337 -1.8131,0 -1.1479,-6.0862 1.9545,-17.8844 1.6465,-6.2613 2.9936,-12.4488 2.9936,-13.75 0,-3.7364 -3.5446,-2.9774 -12.3035,2.6345 -4.292,2.75 -8.032,4.9999 -8.3113,4.9999 -0.2793,0 -0.2049,-2.0198 0.1653,-4.4885 0.9479,-6.3204 -0.9224,-6.6996 -9.2454,-1.8745 -7.8653,4.5597 -9.4726,6.9922 -3.9336,5.9531 3.4688,-0.6507 3.6284,-0.5577 3.6253,2.1146 0,1.5374 -1.5767,8.7547 -3.5,16.0384 -1.9232,7.2837 -3.4968,13.4712 -3.4968,13.75 0,0.877 2.8061,0.5524 5.3859,-0.623 2.1394,-0.9748 2.8668,-2.7165 5.297,-12.6832 l 2.8171,-11.5532 5.905,-3.8169 c 5.9614,-3.8532 8.595,-4.6984 8.595,-2.7583 0,0.5822 -1.35,6.4059 -3,12.9415 -3.7586,14.8879 -3.9226,20 -0.6415,20 0.5638,0 3.9773,-1.7538 7.5855,-3.8974 z m -354.9808,-49.5634 c 2.0849,-2.2193 2.1883,-2.7593 1.053,-5.5 -1.4883,-3.5932 -2.2577,-3.7155 -6.1118,-0.9711 -3.3067,2.3546 -3.5499,3.5653 -1.3477,6.7094 2.0052,2.8628 3.5471,2.8054 6.4065,-0.2383 z m 218.1102,-19.4849 c 8.748,-2.7227 16.1363,-8.1186 20.9151,-15.275 6.167,-9.235 7.0115,-13.3859 7.0115,-34.4608 l 0,-18.3185 -38.8,0 c -28.8444,0 -39.1079,-0.3079 -40,-1.2 -1.5975,-1.5975 -1.5301,-6.2811 0.1101,-7.6423 0.9054,-0.7515 21.2119,-1.1762 65.75,-1.3752 58.9941,-0.2637 64.8202,-0.4383 68.9399,-2.0662 10.4201,-4.1175 17.5922,-11.2887 21.7191,-21.7163 1.6266,-4.11 1.7809,-8.9628 1.7809,-55.99999 l 0,-51.5 -3.1512,-6.65125 c -3.9992,-8.44084 -9.7567,-14.19837 -18.1975,-18.1975 l -6.6513,-3.15125 -20.75,-0.33739 -20.75,-0.33738 0,19.69304 c 0,21.98896 -0.9601,27.76661 -6.3117,37.98173 -4.0354,7.70262 -13.5113,17.16349 -21.2814,21.24745 -11.2918,5.93505 -14.2095,6.22143 -63.5516,6.23777 -41.6063,0.0138 -45.0798,0.14918 -51.0387,1.98969 -12.2769,3.79196 -22.0503,13.56668 -25.8432,25.84672 -1.8387,5.95294 -1.9716,9.36813 -1.9476,50.03376 0.025,42.5133 0.084,43.8131 2.2577,50.1446 4.0899,11.9109 12.8056,20.6266 24.7165,24.7165 6.353,2.1814 7.5439,2.2325 52.6609,2.2577 42.9653,0.024 46.5937,-0.1089 52.4125,-1.9199 z m -10.9034,-18.741 c -1.2816,-0.2603 -4.0237,-2.167 -6.0938,-4.2371 -6.3231,-6.3231 -6.3515,-13.8009 -0.076,-20.0762 3.9619,-3.9619 8.1183,-5.3263 13.1563,-4.3187 4.1034,0.8207 10.3527,7.1136 11.182,11.2601 2.0587,10.2936 -7.5916,19.5208 -18.1683,17.3719 z m -131.17,-78.8659 c 0,-22.72292 1.2589,-30.15898 6.62,-39.10408 6.7184,-11.20993 16.3175,-19.13909 28.4934,-23.53668 6.2638,-2.26228 7.3383,-2.31624 55.8866,-2.80663 l 49.5,-0.5 6.7007,-3.1744 c 8.525,-4.03863 15.0863,-10.59988 19.1249,-19.12489 l 3.1744,-6.70071 0.289,-45.44217 c 0.2737,-43.02567 0.1829,-45.79091 -1.7078,-52.00001 -3.6912,-12.12231 -12.9089,-21.5947 -25.0812,-25.77429 -6.353,-2.18142 -7.5439,-2.23248 -52.6609,-2.25771 -42.9653,-0.024 -46.5937,0.10888 -52.4125,1.91991 -8.748,2.72266 -16.1363,8.11859 -20.9151,15.27497 -6.1669,9.23502 -7.0115,13.38592 -7.0115,34.4608 l 0,18.3185 38.8,0 c 28.8444,0 39.1079,0.3079 40,1.2 1.5976,1.59755 1.5301,6.28115 -0.11,7.64236 -0.9055,0.75146 -21.212,1.17618 -65.75,1.3752 -58.9942,0.26361 -64.8203,0.43822 -68.94,2.06612 -10.4201,4.11752 -17.5922,11.28869 -21.7191,21.71632 -1.6266,4.11004 -1.7809,8.96284 -1.7809,56 l 0,51.49999 3.1513,6.6513 c 3.7064,7.8231 9.3194,13.7867 16.3105,17.3293 7.5782,3.8402 10.9029,4.3098 31.2882,4.419 l 18.75,0.1004 0,-19.5526 z m 41.17,-171.13407 c -1.2816,-0.26037 -4.0237,-2.16707 -6.0938,-4.23711 -6.3231,-6.32312 -6.3515,-13.80091 -0.076,-20.07621 3.9619,-3.96193 8.1183,-5.32633 13.1563,-4.31875 4.1034,0.82069 10.3527,7.11364 11.182,11.26018 2.0587,10.29354 -7.5916,19.52077 -18.1683,17.37189 z"
         id="path2963" />
      <path
         style="fill:#2d78ae"
         d="m 1042.5084,1231.6917 c -5.7872,-2.9277 -10.5329,-9.2917 -11.9158,-15.9791 -0.7727,-3.7363 -1.0129,-71.6515 -0.8252,-233.27089 0.2554,-219.99452 0.3302,-228.1498 2.1298,-232.26635 2.6837,-6.1387 9.5947,-11.86843 15.9644,-13.23555 3.726,-0.79971 68.5885,-1.0243 232.1705,-0.80392 214.0479,0.28837 227.1828,0.40576 230.2034,2.0574 1.7619,0.96337 4.7793,3.37419 6.7053,5.35737 7.1507,7.36289 6.6366,-12.34653 6.3498,243.42459 l -0.2585,230.46645 -2.1584,4 c -2.7545,5.1047 -6.8434,8.977 -11.5595,10.947 -3.3245,1.3887 -27.9792,1.553 -233.0381,1.553 l -229.3202,0 -4.4475,-2.25 z m 463.1752,-3.7754 c 5.3463,-1.4849 10.4152,-7.5672 11.7731,-14.1264 0.7951,-3.8411 1.0322,-69.1739 0.8413,-231.84819 l -0.2659,-226.5 -2.4892,-4.34806 c -1.4499,-2.53252 -4.2007,-5.35099 -6.5879,-6.75 l -4.0986,-2.40194 -228.2118,0 c -246.7313,0 -230.6599,-0.35225 -235.8148,5.16863 -5.6633,6.06547 -5.2977,-10.38063 -5.2977,238.33137 0,203.42479 0.1692,228.96919 1.5381,232.24549 2.072,4.9589 4.2041,7.189 8.9619,9.3738 3.8437,1.765 12.8308,1.8374 230,1.8532 149.7658,0.011 227.2317,-0.3258 229.6515,-0.9979 z m -456.6515,-10.1257 c -1.1,-0.6036 -2.5625,-1.8026 -3.25,-2.6643 -0.9918,-1.2432 -1.25,-48.74 -1.25,-229.92117 l 0,-228.35433 2.4545,-2.45455 2.4546,-2.45454 227.3711,0 227.3712,0 2.4243,2.58056 2.4243,2.58057 0,228.39166 0,228.3916 -2.2777,2.2778 -2.2778,2.2778 -226.7222,0.2232 c -163.088,0.1606 -227.2836,-0.085 -228.7223,-0.8743 z m 105.5739,-8.6808 c 9.4849,-6.0152 14.1705,-14.5783 20.1932,-36.9039 l 4.2526,-15.7642 4.7356,-0.5454 c 8.2318,-0.9482 9.1906,-4.9546 1.1857,-4.9546 -2.4426,0 -4.4436,-0.3375 -4.4467,-0.75 -0.022,-2.8779 6.5976,-22.5082 8.1532,-24.1779 1.4355,-1.5409 3.1625,-2.0721 6.7365,-2.0721 3.5056,0 5.2866,-0.5311 6.5823,-1.9627 4.6515,-5.1399 -2.6601,-6.7383 -11.2478,-2.4589 -8.3643,4.1681 -13.7164,10.999 -17.0694,21.786 l -2.8397,9.1356 -4.7914,0.6867 c -8.1698,1.1708 -8.8955,4.8133 -0.959,4.8133 2.4426,0 4.4421,0.3375 4.4434,0.75 0.01,2.3729 -7.5492,33.6096 -9.2034,38.043 -2.6989,7.2335 -5.0385,9.207 -10.915,9.207 -3.9313,0 -5.0929,0.4501 -6.8165,2.6414 -4.4805,5.6959 4.1463,7.5114 12.0064,2.5267 z m 90.6032,1.231 c 0.7558,-1.9695 -1.2739,-3.3634 -4.9271,-3.3838 -2.3536,-0.013 -2.7359,-0.4117 -2.652,-2.7653 0.054,-1.5125 0.8413,-5.675 1.75,-9.25 l 1.652,-6.5 5.2107,-0.636 c 9.4839,-1.1575 19.6395,-10.3963 23.2048,-21.1099 3.1277,-9.399 3.6719,-15.7176 1.6844,-19.5608 -2.8042,-5.4228 -8.3193,-5.0226 -16.5442,1.2006 -4.4786,3.3888 -5.2494,3.2868 -4.8697,-0.6439 0.4638,-4.8003 -2.6483,-4.7363 -11.1504,0.2292 -5.1125,2.9859 -7.0356,4.6729 -7.0356,6.1719 0,1.2342 0.5022,1.8742 1.25,1.5931 3.9302,-1.477 5.6451,-1.723 6.1636,-0.884 0.6849,1.1081 -1.9921,14.5804 -7.1531,35.9983 -3.1461,13.0566 -4.0279,15.4828 -5.8835,16.1883 -2.584,0.9824 -3.7353,2.5644 -2.877,3.9532 0.3484,0.5637 5.1875,1 11.0904,1 8.6797,0 10.5775,-0.274 11.0867,-1.6009 z m 0.073,-30.0884 c -0.9625,-0.2515 -1.75,-1.0699 -1.75,-1.8186 0,-1.4946 2.7237,-14.9333 3.6007,-17.766 0.6524,-2.1069 10.1562,-8.7261 12.529,-8.7261 3.4563,0 3.7707,5.8742 0.8249,15.4116 -3.3511,10.8497 -7.9894,14.7846 -15.2046,12.8991 z m 41.0321,30.142 c 4.5584,-1.8972 11.7595,-8.7328 14.1718,-13.4527 0.9839,-1.925 3.4628,-10.925 5.5086,-20 2.0458,-9.075 4.5757,-19.6304 5.6221,-23.4565 2.3221,-8.4909 1.5327,-9.9274 -3.8639,-7.0312 -3.3334,1.7889 -3.8854,2.6877 -5.5193,8.9877 -4.51,17.3898 -4.2027,16.7603 -9.6681,19.8083 -8.1316,4.535 -8.381,3.6605 -4.0333,-14.1439 3.6298,-14.8647 3.6979,-16.1644 0.8461,-16.1644 -2.2918,0 -14.3105,6.3243 -15.415,8.1115 -1.1714,1.8954 1.0656,3.0304 3.8707,1.9639 1.445,-0.5494 2.8597,-0.6231 3.1435,-0.1638 0.2839,0.4593 -0.8995,6.4151 -2.6299,13.235 -3.3415,13.1702 -3.3036,16.9866 0.1874,18.8549 2.2083,1.1819 5.2504,-0.061 12.8175,-5.2385 2.3761,-1.6257 4.5529,-2.7231 4.8373,-2.4387 0.6528,0.6528 -1.3027,10.6592 -3.3151,16.9636 -2.221,6.9577 -4.5305,8.1284 -14.3456,7.2722 l -7.965,-0.6948 -1.7294,3.6265 c -1.5016,3.149 -1.5366,3.7483 -0.2659,4.552 2.3363,1.4777 13.6828,1.0998 17.7455,-0.5911 z m -182.5006,-28.085 c 6.4609,-4.1616 8.7382,-6.6813 7.3201,-8.0994 -0.355,-0.355 -2.7251,0.3649 -5.2669,1.5997 -3.0734,1.4932 -4.9555,1.9112 -5.619,1.2477 -0.6634,-0.6634 0.1964,-5.958 2.5669,-15.8066 2.9954,-12.4454 3.3493,-15.0307 2.2168,-16.1974 -1.1456,-1.1804 -2.2202,-0.9008 -7.1734,1.8667 -6.95,3.883 -9.326,5.8504 -9.326,7.7219 0,1.0474 0.8634,1.2284 3.5,0.7337 4.4064,-0.8266 4.4177,-0.4938 0.4781,14.066 -3.4174,12.6301 -3.5887,14.7466 -1.3727,16.9625 2.0688,2.0689 4.1514,1.3961 12.6761,-4.0948 z m 47.9685,-2.9185 c 7.0201,-5.1263 6.1668,-8.8298 -1.0242,-4.4454 -1.8008,1.0979 -3.9958,1.9962 -4.8778,1.9962 -2.041,0 -1.4666,-4.0026 2.7592,-19.2275 4.9353,-17.781 3.4532,-18.3242 -16.0205,-5.8717 l -2.4133,1.5432 0.6564,-4.1052 c 1.0612,-6.6359 -0.7287,-7.1262 -9.3902,-2.5724 -7.0441,3.7034 -10.0813,6.4253 -8.7053,7.8013 0.365,0.3649 2.0266,0.1884 3.6925,-0.3923 1.9779,-0.6895 3.2406,-0.7135 3.6389,-0.069 0.3355,0.5428 -1.0461,7.508 -3.0703,15.4783 -2.0241,7.9702 -3.4158,15.1803 -3.0927,16.0223 0.6598,1.7194 4.0087,1.109 6.6645,-1.2148 0.8619,-0.7542 2.6531,-5.9714 3.9804,-11.5939 2.6516,-11.2324 3.8948,-13.1516 11.2024,-17.2951 4.6958,-2.6625 4.75,-2.6687 4.75,-0.5397 0,1.1844 -1.35,7.5008 -3,14.0365 -3.4505,13.6673 -3.5808,15.2763 -1.4133,17.4438 1.4489,1.4489 1.9916,1.3647 6.25,-0.9697 2.5648,-1.406 6.8008,-4.1172 9.4133,-6.0249 z m 55.4965,6.5793 c 8.5275,-3.8708 12.9458,-7.725 16.1066,-14.0504 5.7087,-11.424 6.4011,-21.5117 1.775,-25.8578 -4.1547,-3.9031 -8.2262,-3.7709 -16.5871,0.5388 -9.0641,4.6723 -13.1519,9.6032 -16.1536,19.4858 -2.8636,9.4277 -2.2434,15.2543 2.0301,19.0727 3.6768,3.2852 6.9256,3.4906 12.829,0.8109 z m -5.1898,-7.251 c -3.6491,-5.2099 -0.6359,-18.9336 5.5056,-25.0751 6.6646,-6.6646 11.4613,-3.3572 10.5836,7.2976 -1.1499,13.9577 -11.0797,24.9296 -16.0892,17.7775 z m 129.142,5.4725 c 9.7498,-6.0321 11.7049,-7.7559 10.9697,-9.6717 -0.593,-1.5455 -1.1318,-1.4509 -5.6063,0.9844 -8.9913,4.8937 -9.7908,2.3541 -4.9784,-15.8127 0.9518,-3.5928 1.1724,-3.75 5.2637,-3.75 4.6249,0 8.3892,-1.9991 7.2464,-3.8483 -0.3915,-0.6334 -2.7692,-1.1517 -5.2837,-1.1517 l -4.5718,0 0.6844,-3.75 c 1.8711,-10.2531 1.8938,-11.25 0.256,-11.25 -4.9333,0 -7.2558,2.7231 -9.352,10.9646 -0.7251,2.8505 -1.4688,3.5848 -4.1966,4.1426 -6.0446,1.2363 -6.8451,4.8928 -1.0711,4.8928 1.6176,0 2.941,0.1851 2.941,0.4114 0,0.2262 -1.125,5.1725 -2.5,10.9917 -1.375,5.8193 -2.5,11.6485 -2.5,12.9538 0,2.682 3.4995,7.6431 5.3913,7.6431 0.6854,0 3.9737,-1.6875 7.3074,-3.75 z m 76.0478,1.7785 c 8.5275,-3.8708 12.9458,-7.725 16.1066,-14.0504 5.7087,-11.424 6.4011,-21.5117 1.775,-25.8578 -4.1547,-3.9031 -8.2262,-3.7709 -16.5871,0.5388 -9.0641,4.6723 -13.1519,9.6032 -16.1536,19.4858 -2.8636,9.4277 -2.2434,15.2543 2.0301,19.0727 3.6768,3.2852 6.9256,3.4906 12.829,0.8109 z m -5.1898,-7.251 c -3.6491,-5.2099 -0.6359,-18.9336 5.5056,-25.0751 6.6646,-6.6646 11.4613,-3.3572 10.5836,7.2976 -1.1499,13.9577 -11.0797,24.9296 -16.0892,17.7775 z m 67.6933,0.6717 c 7.0201,-5.1263 6.1668,-8.8298 -1.0242,-4.4454 -1.8008,1.0979 -3.9958,1.9962 -4.8778,1.9962 -2.041,0 -1.4666,-4.0026 2.7592,-19.2275 4.9353,-17.781 3.4532,-18.3242 -16.0205,-5.8717 l -2.4133,1.5432 0.6564,-4.1052 c 1.0611,-6.6359 -0.7287,-7.1262 -9.3902,-2.5724 -7.0441,3.7034 -10.0813,6.4253 -8.7053,7.8013 0.365,0.3649 2.0266,0.1884 3.6926,-0.3923 1.9778,-0.6895 3.2405,-0.7135 3.6388,-0.069 0.3355,0.5428 -1.0461,7.508 -3.0703,15.4783 -2.0241,7.9702 -3.4158,15.1803 -3.0927,16.0223 0.6598,1.7194 4.0087,1.109 6.6645,-1.2148 0.8619,-0.7542 2.6531,-5.9714 3.9804,-11.5939 2.6516,-11.2324 3.8948,-13.1516 11.2024,-17.2951 4.6958,-2.6625 4.75,-2.6687 4.75,-0.5397 0,1.1844 -1.35,7.5008 -3,14.0365 -3.4505,13.6673 -3.5808,15.2763 -1.4133,17.4438 1.4489,1.4489 1.9916,1.3647 6.25,-0.9697 2.5648,-1.406 6.8008,-4.1172 9.4133,-6.0249 z m -117.098,4.8663 c 0.9085,-0.7964 2.8851,-6.4187 4.3923,-12.494 2.7367,-11.0311 2.7465,-11.05 7.2773,-13.9233 4.9375,-3.1312 8.0338,-4.3761 8.8514,-3.5585 0.2873,0.2873 -0.9309,6.5865 -2.7071,13.9983 -4.8415,20.203 -3.4649,22.2315 9.5724,14.1057 8.4252,-5.2512 10.2576,-7.0478 8.7383,-8.5671 -0.7182,-0.7182 -2.2972,-0.3966 -5.1178,1.0424 -7.4914,3.8218 -7.5262,3.6149 -2.5971,-15.4489 3.1916,-12.3441 3.4033,-13.9337 2.0369,-15.3 -1.8152,-1.8153 -3.4648,-1.2175 -13.881,5.0303 -3.7303,2.2375 -6.9918,3.8588 -7.2478,3.6028 -0.9208,-0.9208 6.2249,-24.8083 8.0118,-26.7829 1.3436,-1.4846 3.0825,-2.0203 6.5584,-2.0203 3.9813,0 4.9976,-0.4085 6.421,-2.5808 2.2706,-3.4653 1.3282,-5.4192 -2.6139,-5.4192 -7.0815,0 -18.391,8.454 -21.8893,16.3625 -2.3775,5.3748 -13.2235,52.3985 -12.3949,53.7393 0.7303,1.1817 4.3102,0.2111 6.5891,-1.7863 z m -242.152,-53.7728 c 0,-1.2766 -0.7875,-3.2823 -1.75,-4.457 l -1.75,-2.1359 -3.2327,2.2751 c -3.7757,2.6572 -4.2169,5.8255 -1.2275,8.8149 l 2.0397,2.0398 2.9603,-2.1079 c 1.8246,-1.2993 2.9602,-2.9983 2.9602,-4.429 z m 213.5399,-15.085 c 14.7848,-3.826 26.1389,-15.1261 30.1008,-29.9577 1.762,-6.5963 1.8876,-37.5717 0.1593,-39.3 -0.8921,-0.8921 -11.1556,-1.2 -40,-1.2 l -38.8,0 0,-3.9589 0,-3.9589 64.75,-0.3009 c 59.1533,-0.2749 65.1353,-0.4538 69.2073,-2.0699 11.3937,-4.5218 18.9275,-11.8319 23.2493,-22.5589 2.2375,-5.5536 2.283,-6.4659 2.6035,-52.15249 0.349,-49.75084 0.017,-54.46143 -4.4656,-63.30689 -5.2142,-10.2897 -15.6063,-18.17055 -27.1437,-20.58441 -7.3836,-1.5448 -37.435,-1.47445 -39.0008,0.0913 -0.8538,0.8538 -1.2,7.00411 -1.2,21.3185 0,15.48133 -0.3677,21.37042 -1.5954,25.55 -3.9348,13.39627 -12.7679,24.67027 -24.0141,30.65031 -11.4856,6.10729 -13.2129,6.28119 -62.3905,6.28119 -49.5032,0 -51.8659,0.24433 -62,6.41169 -6.6757,4.06265 -14.2191,13.04505 -17.2545,20.54596 -2.1853,5.40043 -2.2505,6.65069 -2.5435,48.82534 -0.2567,36.9422 -0.068,44.1902 1.2857,49.4754 3.7541,14.6536 15.1376,26.2692 29.5365,30.1385 8.2728,2.2231 90.9647,2.2736 99.5157,0.061 z m -11.4782,-22.285 c -1.874,-1.0049 -4.2294,-3.3604 -5.2344,-5.2343 -3.6731,-6.8488 -1.2699,-15.6228 5.2344,-19.1111 6.8487,-3.6731 15.6228,-1.2699 19.111,5.2344 3.6731,6.8487 1.2699,15.6228 -5.2344,19.111 -1.8739,1.005 -4.9961,1.8273 -6.9383,1.8273 -1.9422,0 -5.0644,-0.8223 -6.9383,-1.8273 z m -128.2617,-57.3727 c 0.8537,-0.8537 1.2,-6.9977 1.2,-21.2899 0,-21.99488 0.9187,-27.86053 5.7829,-36.922 5.4232,-10.10275 17.0414,-19.47078 29.6593,-23.91493 1.9405,-0.68347 21.3274,-1.27726 53.0578,-1.62508 l 50,-0.54808 6.7233,-3.18498 c 9.3432,-4.42605 15.9957,-10.95591 20.5509,-20.17206 l 3.7258,-7.53811 0,-46.05242 c 0,-41.76053 -0.1677,-46.53292 -1.799,-51.20813 -3.8333,-10.98539 -13.5947,-21.02824 -24.9818,-25.70208 -5.0326,-2.06563 -6.8563,-2.15284 -51.0111,-2.4393 -39.1894,-0.25425 -46.687,-0.0686 -52,1.28726 -14.9847,3.82422 -26.3581,15.07058 -30.3487,30.00982 -1.7621,6.59635 -1.8877,37.57171 -0.1594,39.3 0.8921,0.8921 11.1556,1.2 40,1.2 l 38.8,0 0,3.95891 0,3.9589 -64.75,0.30089 c -59.1533,0.27489 -65.1353,0.4538 -69.2073,2.06988 -11.3937,4.52186 -18.9275,11.83196 -23.2493,22.55888 -2.2375,5.55367 -2.283,6.46592 -2.6035,52.15254 -0.2277,32.46078 0.024,48.30149 0.8349,52.46669 3.0198,15.5182 14.3229,27.4625 29.4752,31.1473 6.8155,1.6574 38.6815,1.8045 40.3,0.186 z m 38.2617,-192.62726 c -12.343,-6.6196 -7.1595,-26.17273 6.9383,-26.17273 10.6297,0 17.2733,11.42772 12.1727,20.93834 -2.1887,4.08119 -7.3264,7.06166 -12.1727,7.06166 -1.9422,0 -5.0644,-0.82227 -6.9383,-1.82727 z"
         id="path2961" />
      <path
         style="fill:#1267a3"
         d="m 1045.659,1232.444 c -5.5734,-1.7384 -9.7517,-5.6736 -12.7436,-12.0023 l -2.3638,-5 -0.01,-229.62426 c -0.011,-255.04142 -0.578,-234.632 6.7279,-242.11744 7.2257,-7.40325 -13.8509,-6.83313 241.4262,-6.53053 l 229.6639,0.27224 4.3236,3.03874 c 2.8909,2.03182 5.3218,4.99064 7.3361,8.92926 l 3.0125,5.89053 0,229.57073 c 0,218.79543 -0.085,229.79003 -1.8026,234.24183 -2.2021,5.7065 -9.0612,12.2809 -14.3427,13.7474 -2.6895,0.7468 -72.321,1.0518 -230.3547,1.009 -188.3594,-0.051 -227.2364,-0.291 -230.8731,-1.4252 z m 462.6728,-4.9073 c 3.7375,-1.9446 6.8238,-5.4496 8.6526,-9.8265 1.3816,-3.3068 1.5477,-28.2299 1.5477,-232.26849 0,-204.22326 -0.1651,-228.96017 -1.5507,-232.28212 -2.1263,-5.09795 -7.1484,-10.0396 -11.4049,-11.22208 -5.2498,-1.45842 -452.2552,-1.34079 -457.5444,0.1204 -5.8403,1.61343 -11.0611,7.51114 -12.4733,14.09028 -0.8345,3.88807 -1.0553,65.58378 -0.8314,232.37204 l 0.3047,227.07847 3,4.8158 c 1.6535,2.6543 4.564,5.6487 6.4844,6.6715 3.3649,1.7921 11.3336,1.8557 232.2997,1.8557 194.566,0 229.2194,-0.2103 231.5156,-1.405 z m -460.9389,-11.5066 -2.3608,-1.9117 0,-228.56056 0,-228.56057 2.2777,-2.27778 2.2778,-2.27778 225.7222,-0.2617 c 159.8098,-0.18528 226.4874,0.0535 228.3426,0.81759 1.4411,0.59361 3.1286,2.19505 3.75,3.55875 0.829,1.8195 1.1297,62.85248 1.1297,229.29755 l 0,226.8181 -2.0726,2.6349 -2.0726,2.6348 -227.3166,0 c -222.3246,0 -227.3685,-0.042 -229.6774,-1.9116 z m 197.6106,-4.4438 c 2.856,-2.0884 1.2704,-4.6446 -2.881,-4.6446 -1.9098,0 -3.6919,-0.3551 -3.9601,-0.7892 -0.6515,-1.0541 2.433,-15.374 3.6533,-16.9608 0.5287,-0.6875 2.8817,-1.25 5.2288,-1.25 3.4665,0 5.3814,-0.8199 10.2013,-4.3681 3.2636,-2.4025 6.8947,-5.5899 8.0692,-7.083 2.3795,-3.0251 5.7091,-11.3243 6.7331,-16.7826 0.6003,-3.1998 1.0481,-3.6164 4.3268,-4.0258 2.0115,-0.2511 3.8291,-0.3111 4.0393,-0.1331 0.2101,0.1779 -0.8024,5.0503 -2.25,10.8276 -3.8244,15.2625 -3.3212,21.565 1.7218,21.565 1.256,0 5.1776,-1.755 8.7148,-3.9001 3.5372,-2.145 6.6149,-3.7238 6.8394,-3.5085 0.2244,0.2153 -0.407,4.2753 -1.4032,9.0223 -2.7525,13.1164 -5.2893,14.9284 -18.1912,12.9938 l -5.1863,-0.7776 -1.9249,3.835 c -2.8988,5.7754 -2.2432,6.3351 7.4207,6.3351 9.9719,0 14.0162,-1.6447 19.8077,-8.0552 5.2503,-5.8114 6.8722,-10.0233 10.9944,-28.5503 1.9709,-8.8581 4.2516,-18.3081 5.0682,-21 1.7349,-5.7187 1.9448,-10.3945 0.4667,-10.3945 -0.572,0 -2.8047,0.9004 -4.9617,2.0008 -4.0727,2.0777 -3.9439,1.8179 -7.0658,14.2492 -2.9485,11.7407 -2.82,11.4939 -7.3762,14.164 -2.4269,1.4223 -4.895,2.586 -5.4846,2.586 -1.8132,0 -1.2057,-5.5871 1.9795,-18.2034 1.6782,-6.6476 2.8173,-12.6963 2.5314,-13.4415 -0.8493,-2.213 -3.6608,-1.557 -11.3951,2.659 -4.0217,2.1922 -7.5092,3.9859 -7.75,3.9859 -0.2407,0 -0.4377,-1.0401 -0.4377,-2.3114 0,-1.2713 -0.9175,-3.2963 -2.039,-4.5 -3.0708,-3.2962 -7.7701,-2.8548 -13.961,1.3114 -2.8605,1.925 -5.3522,3.5 -5.5371,3.5 -0.1849,0 -0.4772,-1.4625 -0.6495,-3.25 -0.4555,-4.724 -3.0141,-4.5653 -12.0634,0.7482 -5.768,3.3869 -7.75,5.0886 -7.75,6.6541 0,1.8938 0.3984,2.0396 4,1.4637 3.2578,-0.5209 4,-0.3446 4,0.9504 0,3.5321 -10.2237,48.2083 -11.1735,48.8264 -0.1796,0.1169 -1.5919,1.005 -3.1386,1.9736 -5.5693,3.4878 -1.8591,5.3765 10.871,5.5339 5.3433,0.066 8.6834,-0.357 9.9125,-1.2557 z m -0.7096,-32.8591 c -0.2226,-0.6679 0.5357,-5.2804 1.6851,-10.25 2.0624,-8.9167 2.1535,-9.0782 6.9345,-12.2855 2.6645,-1.7875 5.7542,-3.25 6.866,-3.25 1.8801,0 1.985,0.4715 1.5017,6.75 -0.5579,7.2479 -3.3551,14.856 -6.6869,18.1878 -2.312,2.312 -9.612,2.9128 -10.3004,0.8477 z m -87.5959,29.814 c 8.9352,-6.8225 14.4041,-18.0193 19.8302,-40.5995 1.2556,-5.225 2.7252,-10.0625 3.2658,-10.75 0.5407,-0.6875 2.6958,-1.25 4.7891,-1.25 3.8162,0 7.478,-2.335 6.3992,-4.0806 -0.3125,-0.5057 -2.3151,-0.9194 -4.4502,-0.9194 -2.1351,0 -4.157,-0.4449 -4.4931,-0.9888 -0.7931,-1.2833 3.2331,-16.4117 5.6583,-21.2612 1.8137,-3.6264 2.0502,-3.75 7.1808,-3.75 4.3367,0 5.7255,-0.4472 7.6062,-2.4491 3.8141,-4.0599 2.1685,-5.8723 -4.8698,-5.3632 -5.0067,0.3621 -6.7055,1.0425 -11.3401,4.5416 -6.8964,5.2069 -11.0407,11.4483 -13.2982,20.0271 -2.2112,8.4036 -2.8594,9.2436 -7.1323,9.2436 -4.1422,0 -7.3118,1.5325 -7.3118,3.5352 0,1.0911 1.2756,1.4648 5,1.4648 4.1033,0 4.9962,0.3139 4.9789,1.75 -0.042,3.4624 -6.8225,31.8746 -8.9505,37.5041 -2.4299,6.4279 -4.4748,8.0031 -10.2857,7.9229 -4.4658,-0.062 -8.7427,3.254 -8.7427,6.7776 0,1.8277 0.6233,2.0454 5.8562,2.0454 5.1204,0 6.4158,-0.4273 10.3097,-3.4005 z m -52.8917,-25.5808 c 7.8839,-5.0514 9.8346,-7.3099 7.9452,-9.1993 -0.7283,-0.7283 -2.4379,-0.3511 -5.6257,1.2409 -6.937,3.4645 -6.8765,4.1934 -1.5605,-18.8094 3.2205,-13.9353 1.7413,-15.1303 -9.9489,-8.037 -6.2744,3.8071 -8.1351,6.1353 -6.3389,7.9315 0.9338,0.9338 1.7902,0.9316 3.8567,-0.01 1.461,-0.6657 2.7994,-1.0673 2.9742,-0.8925 0.1749,0.1749 -0.9984,5.4792 -2.6073,11.7875 -5.6731,22.2438 -3.4236,25.4252 11.3052,15.9882 z m 44.3528,-0.5161 c 8.4821,-5.5288 10.4953,-7.7803 8.6273,-9.6482 -0.6816,-0.6817 -2.6805,-0.1654 -6.1327,1.584 l -5.1216,2.5953 0,-2.7668 c 8e-4,-1.5218 1.3749,-7.89 3.0534,-14.1517 1.6786,-6.2616 2.9154,-12.5616 2.7485,-14 -0.494,-4.2577 -4.0208,-3.8884 -12.4313,1.302 -4.0843,2.5206 -7.596,4.5828 -7.8039,4.5828 -0.2078,0 -0.1376,-1.7918 0.1562,-3.9818 0.7351,-5.481 -1.2977,-6.0678 -8.7242,-2.5183 -8.0661,3.8553 -11.5055,6.741 -10.6601,8.944 0.3722,0.97 1.2354,1.5537 1.9183,1.2971 5.0269,-1.8891 5.7411,-1.8719 5.7411,0.1379 0,1.1076 -1.575,8.1058 -3.5,15.5516 -1.925,7.4458 -3.5,13.9949 -3.5,14.5537 0,0.5587 1.3705,1.0158 3.0455,1.0158 5.042,0 7.2509,-3.2812 9.7614,-14.5 1.2308,-5.5 2.5652,-10.5035 2.9655,-11.119 1.0263,-1.5783 11.2237,-7.7183 11.8231,-7.1189 0.2724,0.2725 -0.8751,5.9236 -2.5501,12.5581 -4.0393,15.9997 -4.0006,21.1798 0.1583,21.1798 1.0943,0 5.7848,-2.4738 10.4233,-5.4974 z m 62.554,2.3203 c 3.2785,-1.7474 7.6611,-5.1088 9.7393,-7.4696 4.5773,-5.2001 8.0797,-15.1491 8.0797,-22.9512 0,-4.8074 -0.3938,-5.9497 -2.9231,-8.479 -3.8267,-3.8267 -9.5969,-3.9632 -16.7547,-0.3964 -11.3102,5.6362 -17.4961,15.4158 -18.1508,28.6956 -0.369,7.4851 -0.2877,7.8153 2.6471,10.75 4.1657,4.1658 9.3501,4.1211 17.3625,-0.1494 z m -8.1548,-6.2913 c -1.705,-2.0544 -1.4496,-10.7408 0.4873,-16.5722 2.9012,-8.7347 9.9621,-13.706 13.4678,-9.482 0.6743,0.8126 1.1962,3.9815 1.1596,7.042 -0.076,6.345 -4.1617,16.6813 -7.5255,19.0374 -2.6495,1.8558 -6.0374,1.8446 -7.5892,-0.025 z m 132.6124,3.9049 c 5.688,-3.7847 8.3614,-6.1826 8.3614,-7.5 0,-2.5787 -2.0665,-2.4432 -7.9114,0.5186 -2.6648,1.3504 -5.1248,2.1754 -5.4668,1.8334 -1.0558,-1.0558 -0.5046,-7.4786 1.2262,-14.2885 l 1.652,-6.5 5.2255,-0.5254 c 8.5277,-0.8575 10.0855,-4.9746 1.8822,-4.9746 -2.3509,0 -4.5242,-0.2498 -4.8295,-0.5551 -0.3053,-0.3053 0.1163,-3.4987 0.937,-7.0964 1.6135,-7.0738 0.9889,-9.0241 -2.5321,-7.9066 -4.2228,1.3403 -7.0002,4.5151 -7.7089,8.8121 -0.8553,5.1854 -2.0178,6.746 -5.0252,6.746 -2.5787,0 -5.7755,2.6627 -4.8992,4.0806 0.3125,0.5057 1.8917,0.9194 3.5092,0.9194 3.5633,0 3.6275,0.7502 0.941,11 -3.4705,13.2413 -2.1052,21 3.6953,21 1.4645,0 6.2004,-2.4077 10.9433,-5.5635 z m 45.8167,0.063 c 4.8183,-3.025 8.9369,-5.5 9.1526,-5.5 0.2157,0 0.3921,1.1596 0.3921,2.5769 0,1.5149 1.2048,3.7817 2.9231,5.5 2.2999,2.3 3.8157,2.9231 7.11,2.9231 5.5388,0 14.9509,-5.0388 19.8872,-10.6467 3.7544,-4.2652 8.0797,-14.848 8.0797,-19.7685 0,-1.8219 0.5227,-2.3517 2.25,-2.2804 1.2375,0.051 3.2625,-0.2519 4.5,-0.6732 3.0923,-1.0527 2.982,0.4302 -1.25,16.7993 -1.925,7.4458 -3.5,13.9949 -3.5,14.5537 0,0.5587 1.3705,1.0158 3.0455,1.0158 5.042,0 7.2509,-3.2812 9.7614,-14.5 1.2308,-5.5 2.5652,-10.5035 2.9655,-11.119 1.0263,-1.5783 11.2237,-7.7183 11.8231,-7.1189 0.2724,0.2725 -0.8751,5.9236 -2.5501,12.5581 -4.0393,15.9997 -4.0006,21.1798 0.1583,21.1798 2.4842,0 18.6412,-10.4322 19.4595,-12.5646 1.2518,-3.2621 -1.3032,-3.6515 -6.5416,-0.997 l -5.1216,2.5953 0,-2.7668 c 8e-4,-1.5218 1.3749,-7.89 3.0534,-14.1517 1.6786,-6.2616 2.9154,-12.5616 2.7485,-14 -0.494,-4.2577 -4.0208,-3.8884 -12.4313,1.302 -4.0843,2.5206 -7.596,4.5828 -7.8039,4.5828 -0.2078,0 -0.1376,-1.7918 0.1562,-3.9818 0.893,-6.658 -2.5423,-6.5106 -14.3786,0.6168 -6.46,3.89 -6.3458,3.8579 -6.3458,1.7881 0,-0.8673 -1.3154,-2.8923 -2.9231,-4.5 -3.8267,-3.8268 -9.5969,-3.9632 -16.7547,-0.3964 -9.094,4.5318 -13.9597,10.509 -17.3201,21.277 -0.9104,2.917 -1.9613,5.2735 -2.3355,5.2366 -0.3741,-0.037 -2.9271,1.0715 -5.6734,2.4632 l -4.9937,2.5302 -0.02,-2.2668 c -0.011,-1.2468 1.4161,-8.1539 3.1713,-15.3492 1.7553,-7.1953 2.9034,-13.8328 2.5514,-14.75 -1.0494,-2.7348 -4.7936,-1.9284 -13.145,2.8308 -4.3417,2.4742 -8.0308,4.3617 -8.1981,4.1945 -0.7617,-0.7618 5.8498,-23.2669 7.309,-24.8793 1.1476,-1.268 3.0745,-1.8137 6.4048,-1.8137 4.3605,0 4.9455,-0.2945 6.9153,-3.4817 1.1836,-1.915 1.8687,-3.94 1.5226,-4.5 -0.9825,-1.5896 -9.268,-1.1955 -12.7529,0.6067 -5.8622,3.0314 -13.5586,11.2532 -15.1888,16.2257 -2.1767,6.6393 -11.5696,47.8163 -11.5696,50.7191 0,1.9371 0.5165,2.4302 2.5455,2.4302 4.4823,0 6.8004,-3.6509 9.4325,-14.8557 2.1136,-8.9977 2.8319,-10.6542 5.4773,-12.6319 3.9549,-2.9568 9.1534,-5.5704 9.7977,-4.926 0.2786,0.2786 -0.7794,5.5481 -2.3513,11.7101 -3.8348,15.0332 -3.8186,21.7035 0.053,21.7035 0.9572,0 5.6826,-2.475 10.5009,-5.5 z m 21.5709,-3.9684 c -1.705,-2.0544 -1.4496,-10.7408 0.4873,-16.5722 2.9012,-8.7347 9.9621,-13.706 13.4678,-9.482 0.6743,0.8126 1.1962,3.9815 1.1596,7.042 -0.076,6.345 -4.1617,16.6813 -7.5255,19.0374 -2.6495,1.8558 -6.0374,1.8446 -7.5892,-0.025 z m -293.9857,-43.7197 c 3.3642,-2.4873 3.5855,-3.7006 1.4338,-7.8615 -1.9412,-3.7539 -4.3443,-3.7393 -7.973,0.048 -2.8513,2.976 -2.8604,3.025 -1.2033,6.5 1.9367,4.0612 3.6358,4.3494 7.7425,1.3132 z m 223.45,-21.7315 c 8.8859,-4.3759 15.7434,-11.2414 19.8164,-19.8396 l 3.1931,-6.7408 0.3223,-20.7384 0.3222,-20.7385 -39.8222,-0.2615 -39.8223,-0.2616 0,-3.5 0,-3.5 65.5228,-0.5 65.5229,-0.5 6.8506,-3.3734 c 8.6921,-4.2803 13.9656,-9.5605 17.9525,-17.9753 l 3.1512,-6.6513 0,-51.99999 0,-52 -3.1382,-6.62338 c -4.3805,-9.24525 -9.214,-14.19975 -18.177,-18.63183 l -7.5731,-3.74479 -21.3058,-0.33594 -21.3059,-0.33593 0,20.53431 c 0,19.15726 -0.1686,21.06806 -2.5142,28.49332 -5.252,16.62545 -15.3522,27.05768 -32.3986,33.46364 -5.319,1.99884 -7.9646,2.12557 -55.1114,2.64011 l -49.5243,0.54049 -6.9677,3.4318 c -8.6701,4.27023 -15.3247,10.96825 -19.6734,19.80187 l -3.3104,6.72428 0,48.04204 0,48.0421 3.2854,6.6736 c 5.4057,10.9804 15.2818,19.4571 26.144,22.4395 3.4259,0.9407 16.7232,1.2036 53.0939,1.0499 l 48.5233,-0.2051 6.9439,-3.4196 z m -18.5207,-20.3304 c -3.5685,-1.8027 -4.8401,-3.1942 -6.3969,-7 -1.9227,-4.7003 -1.9227,-4.7997 -0.01,-9.5 1.5997,-3.922 2.7767,-5.1663 6.7518,-7.1383 4.3443,-2.155 5.2105,-2.2696 8.8699,-1.1732 5.1249,1.5354 8.3289,4.7205 9.8475,9.789 1.0384,3.4658 0.9262,4.5683 -0.8801,8.6518 -1.6436,3.7156 -2.9547,5.0813 -6.3633,6.6283 -5.4793,2.4868 -6.4317,2.4661 -11.8233,-0.2576 z m -127.9698,-76.0399 c 0,-21.99125 0.8542,-27.65565 5.6689,-37.59282 5.1222,-10.57168 17.8012,-20.93412 30.8311,-25.19808 2.9773,-0.97429 16.7843,-1.45091 54,-1.86408 l 50,-0.55511 6.3339,-3.30676 c 8.7598,-4.57322 14.2745,-9.98915 18.8057,-18.46881 l 3.8604,-7.22443 0,-48.52103 0,-48.52103 -3.3272,-6.7586 c -1.83,-3.71723 -5.5292,-8.9605 -8.2204,-11.65172 -2.6912,-2.69122 -7.9345,-6.39038 -11.6517,-8.22037 l -6.7586,-3.32725 -50.5421,0 -50.5421,0 -6.9461,3.4196 c -8.888,4.37555 -15.7447,11.2395 -19.8187,19.83965 l -3.1931,6.74075 -0.3223,20.73846 -0.3222,20.73846 39.8222,0.26154 39.8223,0.26154 0,3.5 0,3.5 -65.5228,0.5 -65.5229,0.5 -6.8506,3.37342 c -8.6921,4.28027 -13.9657,9.56052 -17.9524,17.97533 l -3.1513,6.65125 0,52 0,51.99999 3.1382,6.6234 c 4.0405,8.5277 8.8654,13.8004 16.2112,17.7157 8.4211,4.4883 11.4116,4.9483 32.9006,5.0605 l 19.25,0.1004 0,-20.2899 z m 37.9698,-173.96009 c -3.5685,-1.80273 -4.8401,-3.19423 -6.3969,-7 -1.9227,-4.70027 -1.9227,-4.79973 -0.01,-9.5 1.5997,-3.92202 2.7767,-5.16631 6.7518,-7.13828 4.3443,-2.15507 5.2105,-2.26963 8.8699,-1.17324 5.1249,1.53545 8.3289,4.72047 9.8475,9.78904 1.0384,3.46581 0.9262,4.56828 -0.8801,8.65178 -1.6436,3.71563 -2.9547,5.0813 -6.3633,6.62831 -5.4793,2.48682 -6.4317,2.46607 -11.8233,-0.25761 z"
         id="path2959" />
      <path
         style="fill:#025d9e"
         d="m 1044.0321,1231.0459 c -4.9016,-2.2694 -8.8875,-6.3919 -10.947,-11.3221 -1.389,-3.3253 -1.5507,-28.0869 -1.531,-234.49997 0.021,-221.06268 0.099,-230.95094 1.843,-234.7907 1.9548,-4.30309 7.8171,-10.03984 11.8112,-11.55841 1.4927,-0.56752 92.4818,-0.93301 232.2759,-0.93301 l 229.8219,0 4.8211,3.25 c 3.2404,2.18444 5.6545,4.88052 7.363,8.22318 l 2.5419,4.97318 0.3047,228.02682 c 0.2259,168.99911 0.01,229.41221 -0.8445,233.37851 -1.3636,6.3505 -6.3934,12.5196 -12.4602,15.2826 -3.8322,1.7454 -13.5836,1.8218 -232.5,1.8218 -220.304,0 -228.6435,-0.066 -232.5,-1.8519 z m 463.1849,-2.1655 c 4.6635,-1.7582 9.2496,-6.9789 10.8425,-12.3429 1.278,-4.3033 1.4719,-34.9071 1.467,-231.52729 0,-155.01377 -0.3368,-227.76146 -1.0545,-230.34583 -1.2082,-4.3505 -5.966,-10.16771 -10.0387,-12.27375 -4.2559,-2.20084 -459.5753,-2.18595 -463.8317,0.0152 -3.8901,2.01165 -7.8046,6.89331 -9.0861,11.33099 -0.7498,2.59664 -0.9821,72.52891 -0.7766,233.77802 l 0.2932,230.07306 2.8161,4.2554 c 1.7719,2.6774 4.3676,4.9598 7,6.1549 4.0704,1.8481 10.3581,1.9002 231.8688,1.9216 158.1778,0.015 228.5443,-0.3021 230.5,-1.0394 z m -456.4261,-11.6389 c -5.6251,-1.0957 -5.2588,15.0676 -5.2588,-232.06775 l 0,-227.32295 2.4545,-2.45455 2.4546,-2.45454 226.3711,0 226.3712,0 2.1743,2.31445 2.1743,2.31445 0,228.03056 0,228.03053 -2.1049,1.905 c -2.056,1.8607 -7.3392,1.9078 -227.25,2.0232 -123.8298,0.065 -226.1536,-0.078 -227.3863,-0.3184 z m 104.4221,-6.8529 c 9.4421,-5.5335 15.5265,-16.9371 21.4467,-40.1961 l 3.3724,-13.2493 4.1392,-7e-4 c 9.0036,0 11.1867,-6.654 2.3633,-7.2016 l -4.8213,-0.2992 3.3207,-10.9485 c 3.7677,-12.4227 5.0647,-13.9608 11.0332,-13.0853 3.5487,0.5206 4.3734,0.2387 6.8424,-2.3383 4.0164,-4.1923 3.2303,-6.5474 -2.318,-6.9443 -6.6098,-0.4728 -12.5123,2.2693 -19.1297,8.8866 -5.0608,5.0608 -6.1303,6.84 -8.3662,13.9178 -1.41,4.4634 -2.5636,8.767 -2.5636,9.5636 0,1.0338 -1.2164,1.4548 -4.25,1.4706 -4.9118,0.026 -9.4018,2.837 -8.4582,5.2958 0.4101,1.0688 2.1728,1.6714 5.4927,1.8779 l 4.8888,0.3041 -3.316,14.8464 c -6.1659,27.6067 -7.7803,30.6536 -16.2415,30.6536 -4.3551,0 -5.239,0.3643 -7.0477,2.9044 -3.8258,5.3728 -2.7913,7.0956 4.2607,7.0956 3.552,0 6.2544,-0.7377 9.3521,-2.5531 z m 91.1191,1.3531 c 3.0986,-3.0986 0.7743,-5.8 -4.9902,-5.8 -2.6323,0 -2.9561,-0.2931 -2.4857,-2.25 0.2975,-1.2375 1.1113,-5.0625 1.8085,-8.5 l 1.2676,-6.25 3.8397,0 c 5.2266,0 11.0869,-3.1964 17.3582,-9.4677 4.5373,-4.5373 5.61,-6.4069 7.9121,-13.7906 2.3571,-7.5601 2.9692,-8.6005 5.3265,-9.0534 1.4648,-0.2814 2.8599,-0.3173 3.1002,-0.08 0.2404,0.2376 -0.7721,5.0976 -2.25,10.8 -1.4778,5.7023 -2.6869,11.8931 -2.6869,13.7571 0,4.1958 2.4238,7.8343 5.2189,7.8343 2.1437,0 9.7387,-3.9694 13.1808,-6.8888 1.8343,-1.5557 1.8787,-1.4527 1.289,2.9941 -0.3359,2.5329 -1.4158,7.0319 -2.3997,9.9978 -2.3694,7.1418 -5.2191,8.6306 -13.7497,7.1834 -6.9269,-1.1752 -8.777,-0.541 -10.4907,3.5962 -2.3336,5.6337 -1.3819,6.5813 6.962,6.9327 9.6382,0.4059 14.1312,-0.9832 19.6577,-6.0773 7.0379,-6.4873 8.7232,-10.4705 13.8384,-32.7061 2.5897,-11.2574 5.1101,-21.5242 5.6009,-22.8151 1.3431,-3.5324 1.0742,-7.2099 -0.5733,-7.8421 -0.8062,-0.3094 -3.3937,0.4971 -5.75,1.7921 l -4.2843,2.3546 -3.0556,11.9102 -3.0555,11.9103 -4.6141,2.576 c -2.5378,1.4168 -4.9137,2.2764 -5.2798,1.9103 -0.3662,-0.3661 0.9088,-7.1045 2.8332,-14.9741 4.7815,-19.5528 3.919,-20.9148 -8.8175,-13.9246 l -7.1599,3.9296 -1.2622,-3.4906 c -2.3145,-6.4007 -9.2299,-6.9464 -16.9705,-1.3391 -4.1047,2.9734 -4.1181,2.9756 -4.1181,0.6768 0,-2.6631 -1.7154,-4.7066 -3.95,-4.7056 -0.8525,4e-4 -5.2625,2.2093 -9.8,4.9087 -5.8523,3.4815 -8.25,4.4695 -8.25,3.3993 0,-0.8298 -1.53,-3.0387 -3.4,-4.9087 -4.3661,-4.3661 -8.7783,-4.4968 -17.2062,-0.5097 -12.5249,5.9254 -18.6608,15.6919 -18.8078,29.9369 -0.084,8.1842 -0.03,8.3774 3.1798,11.25 3.9423,3.5283 8.6615,3.8196 15.0332,0.9278 11.1024,-5.0388 16.3253,-11.2884 19.7609,-23.6458 1.6234,-5.8389 1.8826,-6.1693 5.2712,-6.7192 1.9601,-0.3181 3.7787,-0.3635 4.0414,-0.1009 0.691,0.691 -1.2305,10.4753 -6.0514,30.8137 -3.6856,15.5491 -4.5199,17.9624 -6.4656,18.7021 -2.5008,0.9509 -4.3179,3.7962 -3.637,5.6951 0.6162,1.7188 23.3674,1.7641 25.0815,0.05 z m -42.9276,-33.4588 c -0.8546,-1.033 -1.3302,-3.8773 -1.2607,-7.5392 0.1333,-7.0107 4.3209,-16.0473 8.6275,-18.6174 2.5561,-1.5254 2.857,-1.5167 4.5,0.1305 3.9887,3.9986 0.9043,19.1323 -5.129,25.1656 -2.9333,2.9333 -4.8231,3.1747 -6.7378,0.8605 z m 42.8776,0.9695 c -2.2309,-0.583 -2.3983,1.0304 1.7705,-17.0636 0.2998,-1.3014 2.8647,-3.8103 6.0727,-5.9403 4.5907,-3.0481 5.7191,-3.4377 6.5084,-2.2471 2.1668,3.2686 -2.3808,19.3104 -6.6981,23.6277 -2.2314,2.2314 -3.9398,2.5938 -7.6535,1.6233 z m -144.8333,5.9393 c 8.2451,-4.8529 12.2732,-8.5915 11.4811,-10.6557 -0.7873,-2.0517 -3.4308,-2.0231 -7.8513,0.085 -1.9368,0.9236 -3.712,1.4861 -3.9449,1.25 -0.2329,-0.2361 1.1585,-7.0764 3.092,-15.2008 2.8243,-11.8674 3.2742,-15.0623 2.2885,-16.25 -1.881,-2.2665 -3.762,-1.83 -11.7093,2.7171 -5.0289,2.8773 -7.5203,4.9426 -7.9296,6.5732 -0.8616,3.4329 0.9575,4.8709 4.2589,3.3667 1.461,-0.6657 2.7994,-1.0672 2.9742,-0.8924 0.1749,0.1748 -0.9984,5.4792 -2.6073,11.7874 -3.3348,13.0754 -3.6295,17.1662 -1.3976,19.3982 2.338,2.338 4.3175,1.9578 11.3453,-2.1786 z m 44.0208,0 c 7.591,-4.4534 13.4232,-9.6621 12.831,-11.4594 -0.7146,-2.1691 -4.6103,-2.0515 -8.3371,0.2518 -1.9451,1.2022 -3.7724,1.95 -4.0605,1.6618 -0.2882,-0.2881 1.0855,-6.6417 3.0526,-14.1191 3.9874,-15.1569 4.2962,-18.0949 1.9947,-18.9781 -3.0684,-1.1775 -5.1679,-0.5685 -11.0132,3.1944 -3.2477,2.0907 -6.4053,4.1038 -7.0167,4.4735 -0.7408,0.4479 -1.0745,-0.5253 -1,-2.9169 0.1912,-6.1433 -2.1567,-6.5379 -11.0568,-1.858 -7.6347,4.0145 -11.1187,7.4173 -9.7921,9.5638 0.4494,0.7272 2.1069,0.9286 4.4969,0.5464 l 3.7852,-0.6053 -1.4526,6.2476 c -0.7989,3.4361 -2.598,10.4607 -3.9981,15.6101 -1.7185,6.3202 -2.2166,9.6916 -1.5329,10.3753 1.408,1.408 7.5691,0.091 9.3871,-2.0075 0.8248,-0.9517 2.7174,-6.7095 4.2058,-12.7951 l 2.7062,-11.0647 5.1292,-3.1543 c 2.8211,-1.7348 5.2856,-2.9978 5.4769,-2.8066 0.1912,0.1913 -1.0227,5.776 -2.6977,12.4105 -3.2801,12.9926 -3.6192,16.2391 -2.0102,19.2456 1.4897,2.7835 3.6861,2.4177 10.9023,-1.8158 z m 186.8698,0 c 7.7643,-4.7191 12.1927,-8.6021 12.1927,-10.6911 0,-2.9539 -3.2204,-3.0196 -8.3248,-0.1697 -2.9019,1.6201 -5.3006,2.3854 -5.8271,1.8589 -0.5265,-0.5265 -0.2572,-3.9521 0.6543,-8.3215 2.3762,-11.3916 2.0802,-10.9266 6.9542,-10.9266 5.0296,0 9.2437,-2.7326 8.2415,-5.3442 -0.4748,-1.2375 -1.9065,-1.6558 -5.6667,-1.6558 -2.7673,0 -5.0314,-0.245 -5.0314,-0.5445 0,-0.2994 0.7368,-3.4777 1.6373,-7.0627 2.1198,-8.4389 1.2509,-9.5399 -5.3767,-6.8129 -4.6496,1.9131 -4.7938,2.1041 -6.1856,8.1894 -1.3175,5.7605 -1.6299,6.2307 -4.1392,6.2307 -3.5579,0 -7.4741,3.1549 -6.6339,5.3443 0.4185,1.0907 1.7929,1.6557 4.0278,1.6557 l 3.3925,0 -2.3592,9.75 c -2.9226,12.0788 -2.9835,16.1914 -0.2904,19.6152 2.7948,3.5529 5.4346,3.3218 12.7347,-1.1152 z m 48.1927,-1.6953 8.5,-5.4423 1.0481,3.0718 c 3.3888,9.9315 13.7532,10.187 27.0113,0.6658 5.0527,-3.6286 9.5638,-11.573 11.5102,-20.2704 1.1348,-5.0707 1.3932,-5.393 4.7626,-5.9398 1.9595,-0.318 3.6661,-0.4749 3.7923,-0.3486 0.1262,0.1262 -1.554,7.161 -3.7339,15.6328 -2.537,9.8598 -3.6173,15.7493 -3.0017,16.3649 1.3645,1.3645 7.5521,2e-4 9.3361,-2.0584 0.8248,-0.9518 2.7174,-6.7096 4.2058,-12.7952 l 2.7062,-11.0647 5.1292,-3.1543 c 2.8211,-1.7348 5.2856,-2.9978 5.4769,-2.8065 0.1912,0.1912 -1.0227,5.7759 -2.6977,12.4104 -1.675,6.6346 -3.0454,13.3531 -3.0454,14.9302 0,4.2277 2.148,6.6803 5.1834,5.9184 3.6818,-0.924 17.4978,-10.2046 18.7922,-12.6231 2.3335,-4.3603 -1.9733,-5.4463 -7.6602,-1.9316 -1.8813,1.1627 -3.6564,1.8783 -3.9445,1.5901 -0.2882,-0.2881 1.0855,-6.6417 3.0526,-14.1191 3.9874,-15.1569 4.2962,-18.0949 1.9947,-18.9781 -3.0684,-1.1775 -5.1679,-0.5685 -11.0132,3.1944 -3.2477,2.0907 -6.4607,4.1381 -7.1399,4.5497 -0.9186,0.5566 -1.0789,-0.032 -0.6255,-2.2989 0.6742,-3.3713 -0.8921,-6.0522 -3.5363,-6.0522 -0.9084,0 -5.1144,1.9733 -9.3466,4.3851 -6.9411,3.9556 -7.7521,4.2048 -8.2792,2.5439 -1.07,-3.3711 -6.3616,-6.929 -10.3042,-6.9282 -5.0963,10e-4 -15.2454,5.0408 -19.9837,9.9233 -3.6902,3.8024 -7.218,10.8881 -8.6262,17.3259 -0.3733,1.7068 -1.2581,2.7514 -2.3324,2.7538 -0.9521,0 -3.2442,0.9263 -5.0938,2.0538 -1.8495,1.1276 -3.576,1.8369 -3.8367,1.5763 -0.2606,-0.2607 1.2328,-7.2147 3.3187,-15.4534 3.2025,-12.6488 3.5859,-15.2284 2.4642,-16.5799 -2.1135,-2.5467 -5.1108,-1.9075 -13.108,2.7955 -4.1115,2.4178 -7.6041,4.2767 -7.7614,4.1307 -0.7491,-0.6953 5.1135,-20.3321 6.7255,-22.5268 1.5616,-2.1262 2.5113,-2.4566 6.3518,-2.2101 4.0437,0.2597 4.742,-0.028 6.6815,-2.7517 3.1638,-4.4431 2.409,-7.4544 -1.9728,-7.8709 -1.925,-0.1829 -5.1784,0.1699 -7.2298,0.7841 -5.0193,1.5029 -15.1391,11.0142 -17.2006,16.1662 -1.9255,4.8124 -12.5696,50.1671 -12.5696,53.5596 0,2.6393 1.8466,2.9695 6.8513,1.2248 3.3709,-1.1751 3.8121,-2.2133 7.7591,-18.2595 1.6239,-6.6021 1.8891,-6.9868 7.1211,-10.3337 2.9889,-1.912 5.5865,-3.3241 5.7725,-3.1381 0.186,0.186 -0.9763,5.7268 -2.5829,12.3129 -3.1466,12.8992 -3.4998,16.5666 -1.8859,19.5822 1.5903,2.9714 3.7565,2.3847 12.9648,-3.5111 z m 22.8724,-5.2135 c -0.8546,-1.033 -1.3302,-3.8773 -1.2607,-7.5392 0.1333,-7.0107 4.3209,-16.0473 8.6275,-18.6174 2.5561,-1.5254 2.857,-1.5167 4.5,0.1305 3.9887,3.9986 0.9043,19.1323 -5.129,25.1656 -2.9333,2.9333 -4.8231,3.1747 -6.7378,0.8605 z m -294.3057,-42.9599 c 3.9077,-2.9805 4.0947,-3.9266 1.7481,-8.8474 -2.1221,-4.45 -4.6943,-4.5748 -9.1044,-0.4416 -3.4716,3.2537 -3.5722,4.9181 -0.5832,9.6577 1.8459,2.9271 3.7334,2.8395 7.9395,-0.3687 z m 215.9732,-18.9236 c 15.3125,-3.9626 27.1183,-16.1777 30.4035,-31.4577 0.7372,-3.4288 1.0647,-12.0901 0.8696,-23 l -0.313,-17.5 -39.75,-0.2615 -39.75,-0.2614 0,-2.9475 0,-2.9474 64.75,-0.3009 c 59.1533,-0.2749 65.1353,-0.4538 69.2073,-2.0699 11.393,-4.5215 18.9259,-11.8303 23.2504,-22.5589 2.242,-5.5619 2.2837,-6.414 2.603,-53.15249 0.2269,-33.19895 -0.025,-49.29641 -0.836,-53.46667 -3.1605,-16.24858 -15.3315,-28.4283 -31.4747,-31.49723 -3.5291,-0.6709 -13.2068,-1.01616 -23.5,-0.83837 l -17.5,0.30227 -0.5313,23 c -0.4828,20.89487 -0.7405,23.52496 -2.8165,28.73554 -6.4251,16.12688 -18.5762,27.03517 -34.8318,31.26922 -4.6792,1.21878 -13.9832,1.49524 -50.3204,1.49524 -49.5032,0 -51.8659,0.24433 -62,6.41169 -6.6749,4.06214 -14.2183,13.04398 -17.2556,20.54596 -2.1901,5.40957 -2.2511,6.60334 -2.5426,49.82904 -0.2552,37.8419 -0.068,45.1873 1.2868,50.4753 3.7531,14.6499 15.1382,26.266 29.5356,30.1349 8.2791,2.2248 92.9574,2.2755 101.5157,0.061 z m -11.4782,-24.285 c -3.7557,-2.0141 -7.0617,-7.2448 -7.0617,-11.1727 0,-6.1788 6.8212,-13 13,-13 1.3922,0 4.0644,0.8223 5.9383,1.8273 3.7557,2.0142 7.0617,7.2448 7.0617,11.1727 0,1.3922 -0.8223,4.0644 -1.8273,5.9384 -2.0141,3.7556 -7.2448,7.0616 -11.1727,7.0616 -1.3922,0 -4.0644,-0.8223 -5.9383,-1.8273 z m -127.0143,-78.1727 c 0.4965,-21.31368 0.7582,-24.03259 2.8124,-29.22476 4.4751,-11.31079 13.2311,-20.88977 24.0724,-26.33504 9.6471,-4.84549 9.3532,-4.81975 61.5678,-5.39211 l 50,-0.54808 6.7233,-3.18498 c 9.3432,-4.42606 15.9957,-10.95591 20.5509,-20.17208 l 3.7258,-7.53812 0,-47.05241 c 0,-42.72328 -0.1655,-47.52677 -1.799,-52.20811 -3.8333,-10.98539 -13.5947,-21.02824 -24.9818,-25.70208 -5.0393,-2.06838 -6.8321,-2.15243 -52.0144,-2.43845 -40.0914,-0.25379 -47.6842,-0.0694 -53,1.28727 -15.5086,3.9579 -27.3398,16.12136 -30.6482,31.50896 -0.7372,3.42883 -1.0647,12.09008 -0.8696,23 l 0.313,17.5 39.75,0.26147 39.75,0.26148 0,2.94743 0,2.94743 -64.75,0.30089 c -59.1533,0.27489 -65.1353,0.4538 -69.2073,2.06988 -11.393,4.52158 -18.9258,11.83037 -23.2504,22.55888 -2.242,5.56192 -2.2837,6.41404 -2.603,53.15254 -0.2269,33.19895 0.025,49.29639 0.836,53.46669 3.0174,15.5127 14.2949,27.4342 29.4747,31.1579 3.2135,0.7883 11.7886,1.1638 24,1.051 l 19,-0.1756 0.5474,-23.5 z m 37.0143,-171.82726 c -3.7557,-2.01417 -7.0617,-7.24484 -7.0617,-11.17273 0,-1.39216 0.8223,-4.06441 1.8273,-5.93834 2.0141,-3.75564 7.2448,-7.06166 11.1727,-7.06166 6.1788,0 13,6.82119 13,13 0,6.17881 -6.8212,13 -13,13 -1.3922,0 -4.0644,-0.82227 -5.9383,-1.82727 z"
         id="path2957" />
    </g>
  </g>
</svg>
